<?xml version="1.0" encoding="UTF-8" standalone="no"?>
<!-- Created with Inkscape (http://www.inkscape.org/) -->

<svg
   xmlns:dc="http://purl.org/dc/elements/1.1/"
   xmlns:cc="http://creativecommons.org/ns#"
   xmlns:rdf="http://www.w3.org/1999/02/22-rdf-syntax-ns#"
   xmlns:svg="http://www.w3.org/2000/svg"
   xmlns="http://www.w3.org/2000/svg"
   xmlns:sodipodi="http://sodipodi.sourceforge.net/DTD/sodipodi-0.dtd"
   xmlns:inkscape="http://www.inkscape.org/namespaces/inkscape"
   width="482.56567"
   height="326.92368"
   id="svg2"
   version="1.1"
   inkscape:version="0.48.4 r9939"
   sodipodi:docname="stack.svg"
   inkscape:export-filename="C:\Documents and Settings\Owner\My Documents\work\thesis\figures\Tat\MMs\stack.png"
   inkscape:export-xdpi="300"
   inkscape:export-ydpi="300">
  <defs
     id="defs4">
    <marker
       inkscape:stockid="Arrow1Mend"
       orient="auto"
       refY="0"
       refX="0"
       id="Arrow1Mend"
       style="overflow:visible">
      <path
         id="path3986"
         d="M 0,0 5,-5 -12.5,0 5,5 0,0 z"
         style="fill-rule:evenodd;stroke:#000000;stroke-width:1pt"
         transform="matrix(-0.4,0,0,-0.4,-4,0)"
         inkscape:connector-curvature="0" />
    </marker>
    <marker
       inkscape:stockid="Arrow1Mend"
       orient="auto"
       refY="0"
       refX="0"
       id="Arrow1Mend-8"
       style="overflow:visible">
      <path
         inkscape:connector-curvature="0"
         id="path3986-5"
         d="M 0,0 5,-5 -12.5,0 5,5 0,0 z"
         style="fill-rule:evenodd;stroke:#000000;stroke-width:1pt"
         transform="matrix(-0.4,0,0,-0.4,-4,0)" />
    </marker>
    <marker
       inkscape:stockid="Arrow1Mend"
       orient="auto"
       refY="0"
       refX="0"
       id="Arrow1Mend-7"
       style="overflow:visible">
      <path
         inkscape:connector-curvature="0"
         id="path3986-51"
         d="M 0,0 5,-5 -12.5,0 5,5 0,0 z"
         style="fill-rule:evenodd;stroke:#000000;stroke-width:1pt"
         transform="matrix(-0.4,0,0,-0.4,-4,0)" />
    </marker>
    <marker
       inkscape:stockid="Arrow1Mend"
       orient="auto"
       refY="0"
       refX="0"
       id="Arrow1Mend-0"
       style="overflow:visible">
      <path
         inkscape:connector-curvature="0"
         id="path3986-1"
         d="M 0,0 5,-5 -12.5,0 5,5 0,0 z"
         style="fill-rule:evenodd;stroke:#000000;stroke-width:1pt"
         transform="matrix(-0.4,0,0,-0.4,-4,0)" />
    </marker>
  </defs>
  <sodipodi:namedview
     id="base"
     pagecolor="#ffffff"
     bordercolor="#666666"
     borderopacity="1.0"
     inkscape:pageopacity="0.0"
     inkscape:pageshadow="2"
     inkscape:zoom="1.4"
     inkscape:cx="133.90848"
     inkscape:cy="140.91249"
     inkscape:document-units="px"
     inkscape:current-layer="layer1"
     showgrid="false"
     inkscape:object-paths="false"
     inkscape:snap-smooth-nodes="false"
     fit-margin-top="0"
     fit-margin-left="0"
     fit-margin-right="0"
     fit-margin-bottom="0"
     inkscape:window-width="1280"
     inkscape:window-height="744"
     inkscape:window-x="-4"
     inkscape:window-y="896"
     inkscape:window-maximized="1" />
  <metadata
     id="metadata7">
    <rdf:RDF>
      <cc:Work
         rdf:about="">
        <dc:format>image/svg+xml</dc:format>
        <dc:type
           rdf:resource="http://purl.org/dc/dcmitype/StillImage" />
        <dc:title></dc:title>
      </cc:Work>
    </rdf:RDF>
  </metadata>
  <g
     inkscape:label="Layer 1"
     inkscape:groupmode="layer"
     id="layer1"
     transform="translate(18.552273,-446.10031)">
    <path
       style="fill:#00ff00;fill-opacity:1;stroke:none"
       id="path3911"
       d="m 115.76434,456.6804 c -2.63161,-1.11224 0.5162,0.0594 0.90248,0.20061 1.32893,0.47453 2.67006,0.87451 4.01184,1.2693 2.00474,0.65142 4.01688,1.25627 6.04091,1.77591 2.41066,0.64657 4.80144,1.42129 7.22135,1.99888 2.67549,0.61679 5.37388,0.9981 8.0713,1.36213 3.15794,0.42216 6.32323,0.71811 9.48894,0.99433 3.29543,0.28557 6.59384,0.49336 9.8926,0.68404 3.30204,0.18779 6.60511,0.33582 9.9085,0.46657 3.42487,0.13165 6.85036,0.2273 10.2759,0.31619 3.23388,0.16895 6.46469,0.0737 9.69549,-0.1387 3.31198,-0.18711 6.61134,-0.65237 9.91326,-1.04284 3.29151,-0.3376 6.57301,-0.81647 9.84942,-1.36842 3.16399,-0.54666 6.32846,-1.09996 9.48104,-1.7669 3.26219,-0.71695 6.5203,-1.46627 9.78944,-2.11879 3.03303,-0.63641 6.0573,-1.3542 9.08187,-2.06574 3.36212,-0.81839 6.74592,-1.42805 10.13516,-1.96957 3.46356,-0.53502 6.9357,-0.94814 10.40965,-1.32121 3.6522,-0.38585 7.31039,-0.64059 10.96854,-0.88206 3.73658,-0.23847 7.47401,-0.45461 11.21374,-0.55988 3.96507,-0.12036 7.93081,0.0787 11.8908,0.34834 3.63398,0.1884 7.2445,0.79817 10.8532,1.39301 3.3971,0.56065 6.76519,1.41256 10.11545,2.37348 2.96852,0.96124 5.95912,1.77559 8.93341,2.69856 3.00261,0.91087 5.99575,1.88052 8.98958,2.84654 3.16063,1.00228 6.31198,2.0601 9.46427,3.11304 3.24386,1.08443 6.45095,2.36692 9.69747,3.43583 3.03664,0.97005 6.10304,1.73454 9.1782,2.41392 2.89336,0.56336 5.7968,1.02783 8.70891,1.34619 2.57465,0.19788 5.1567,0.19484 7.73265,0.0515 2.59469,-0.11542 5.17487,-0.5058 7.75079,-0.93564 0,0 3.01669,36.03199 3.01669,36.03199 l 0,0 c -3.26353,0.54341 -6.53438,1.00981 -9.8209,1.16159 -3.56841,0.17657 -7.14461,0.19218 -10.70923,-0.14025 -3.56817,-0.40504 -7.12827,-0.95208 -10.67171,-1.67302 -3.70325,-0.82396 -7.39604,-1.74968 -11.05157,-2.93059 -3.26463,-1.08285 -6.49642,-2.33979 -9.75524,-3.45502 -3.08921,-1.03195 -6.17733,-2.06965 -9.2749,-3.05086 -2.92878,-0.94575 -5.85704,-1.89406 -8.79461,-2.78473 -2.8423,-0.88817 -5.7037,-1.65051 -8.53968,-2.58055 -2.63364,-0.76374 -5.28244,-1.43685 -7.95337,-1.88463 -3.03417,-0.50017 -6.06823,-1.04052 -9.12431,-1.19117 -3.37612,-0.23623 -6.75781,-0.41003 -10.13846,-0.3119 -3.50524,0.0921 -7.008,0.30976 -10.5103,0.52709 -3.40874,0.22472 -6.81761,0.4595 -10.22089,0.81733 -3.16073,0.33835 -6.31983,0.7128 -9.47131,1.19615 -2.94054,0.46754 -5.87656,0.9916 -8.79308,1.70491 -3.23563,0.76119 -6.47108,1.52811 -9.71634,2.20355 -3.20299,0.6365 -6.39357,1.38274 -9.59025,2.07799 -3.40188,0.71299 -6.81438,1.32389 -10.22843,1.90843 -3.57557,0.60149 -7.15678,1.1247 -10.74847,1.4972 -3.62157,0.42812 -7.2407,0.92895 -10.87342,1.13088 -3.78365,0.245 -7.5685,0.35455 -11.3555,0.17125 -3.50842,-0.0911 -7.01678,-0.18926 -10.5245,-0.32433 -3.414,-0.13531 -6.82767,-0.2884 -10.24027,-0.48273 -3.47731,-0.20129 -6.95424,-0.42139 -10.42803,-0.72292 -3.4546,-0.30202 -6.90859,-0.62829 -10.35461,-1.09066 -3.32826,-0.4513 -6.65639,-0.93941 -9.95586,-1.71673 -2.51885,-0.61347 -5.01633,-1.36544 -7.52204,-2.07411 -2.22655,-0.57969 -4.44545,-1.21784 -6.65046,-1.94446 -1.76817,-0.52024 -3.53374,-1.05987 -5.2839,-1.69142 -1.40877,-0.5351 -2.65058,-0.88913 -3.93126,-1.60951 0,0 9.55005,-33.68747 9.55005,-33.68747 z"
       inkscape:connector-curvature="0" />
    <path
       style="fill:#00ff00;fill-opacity:1;stroke:none"
       id="path3913"
       d="m 112.26965,592.47186 c 0.70745,0.0325 1.34521,-0.0437 2.05468,-0.0985 1.27912,-0.16571 2.54649,-0.47747 3.81662,-0.74498 2.18738,-0.47153 4.39413,-0.71152 6.58605,-1.12856 2.51549,-0.50969 5.03826,-0.93613 7.56481,-1.3148 2.816,-0.41682 5.64047,-0.69763 8.46526,-0.95738 2.81035,-0.32803 5.62191,-0.62881 8.43597,-0.88346 3.09931,-0.27337 6.20117,-0.48053 9.30345,-0.66995 3.13387,-0.20014 6.26849,-0.34321 9.40535,-0.38115 3.54254,-0.0631 7.06881,0.40369 10.56775,1.15577 3.24919,0.7448 6.41494,2.03489 9.55969,3.39383 2.66804,1.16237 5.29956,2.48837 7.92242,3.84328 2.4909,1.2924 4.97259,2.62103 7.46124,3.92219 2.15786,1.10356 4.36963,1.96457 6.59657,2.72619 2.6376,0.88052 5.3151,1.47271 7.97335,2.20518 2.63868,0.78891 5.29673,1.42492 7.96271,1.98899 2.84567,0.58972 5.70784,0.98876 8.57119,1.3511 2.87419,0.31524 5.75845,0.35579 8.63959,0.34696 2.93423,0.0368 5.8625,-0.25136 8.78723,-0.55034 3.08351,-0.26889 6.15207,-0.7876 9.21815,-1.31398 3.10855,-0.45287 6.19954,-1.08091 9.28727,-1.75826 2.93672,-0.69997 5.85958,-1.51679 8.78335,-2.31975 2.74228,-0.76563 5.4656,-1.66998 8.1757,-2.64149 2.79119,-1.12806 5.6029,-2.13621 8.42132,-3.11261 2.90458,-1.05177 5.82432,-2.01787 8.7495,-2.94449 3.24221,-1.03778 6.52118,-1.80035 9.80886,-2.46875 3.36152,-0.66913 6.73767,-1.16552 10.11668,-1.61023 3.43588,-0.43986 6.87832,-0.76095 10.32133,-1.0597 3.00176,-0.18158 5.99296,-0.56082 8.9843,-0.94718 3.30033,-0.43162 6.60673,-0.75592 9.91396,-1.05523 3.57469,-0.38396 7.15694,-0.47033 10.73979,-0.40143 3.62369,0.0234 7.23072,0.49147 10.81967,1.17327 3.43137,0.67138 6.8041,1.79619 10.13728,3.12387 1.96498,0.7896 3.88978,1.76156 5.81387,2.73136 0,0 -8.53355,34.76917 -8.53355,34.76917 l 0,0 c -1.39775,-0.70517 -2.79204,-1.42927 -4.21843,-2.00955 -2.17738,-0.88592 -4.38233,-1.62985 -6.62561,-2.08557 -2.57648,-0.50704 -5.16708,-0.83924 -7.7703,-0.84856 -2.91734,-0.0684 -5.83339,0.0149 -8.74387,0.33229 -3.0774,0.27797 -6.15409,0.57804 -9.22505,0.9796 -3.24262,0.4188 -6.48576,0.82346 -9.73923,1.02866 -3.17804,0.27539 -6.35564,0.5694 -9.52722,0.97312 -2.96179,0.38833 -5.92127,0.819 -8.86799,1.40196 -2.63558,0.53059 -5.26458,1.13366 -7.86339,1.96494 -2.75886,0.87113 -5.51141,1.78681 -8.25032,2.77911 -2.75816,0.95528 -5.50694,1.95434 -8.24023,3.0489 -3.16896,1.12988 -6.35179,2.18916 -9.5583,3.07807 -3.23898,0.8895 -6.47716,1.79351 -9.73228,2.55404 -3.36467,0.73799 -6.73365,1.41954 -10.12017,1.92104 -3.47523,0.5962 -6.95402,1.17126 -10.44853,1.48224 -3.51733,0.35854 -7.0394,0.67956 -10.56774,0.64338 -3.65337,0.007 -7.3104,-0.0652 -10.95365,-0.49054 -3.36446,-0.42812 -6.72701,-0.9057 -10.07017,-1.6051 -3.03555,-0.6461 -6.06322,-1.366 -9.06878,-2.25925 -3.04222,-0.84589 -6.10978,-1.5111 -9.12319,-2.56256 -3.17183,-1.10269 -6.32236,-2.34222 -9.39342,-3.93675 -2.45661,-1.28689 -4.90754,-2.59608 -7.3667,-3.87301 -2.19377,-1.13543 -4.39415,-2.24978 -6.62498,-3.2278 -2.0039,-0.86743 -4.01119,-1.74545 -6.0776,-2.25915 -2.11861,-0.50596 -4.26451,-0.73337 -6.41266,-0.7205 -2.84207,0.0318 -5.68187,0.1697 -8.52127,0.34904 -2.92766,0.17847 -5.85494,0.37324 -8.77984,0.63034 -2.8053,0.25283 -5.60747,0.56248 -8.40946,0.88105 -2.48308,0.22756 -4.96609,0.47012 -7.4416,0.83393 -2.31071,0.34438 -4.61731,0.73946 -6.91768,1.20616 -2.0531,0.37728 -4.11462,0.64304 -6.16553,1.04515 -2.04959,0.43083 -4.09771,0.91197 -6.16848,1.08248 -1.14501,0.0884 -2.29055,0.18009 -3.43774,0.15185 0,0 0,-36.85795 0,-36.85795 z"
       inkscape:connector-curvature="0" />
    <path
       style="fill:#00ff00;fill-opacity:1;stroke:none"
       id="path3915"
       d="m 113.66907,656.35123 c -0.52119,-0.10255 0.8487,0.0528 1.10408,0.0736 1.79105,0.12061 3.58404,0.16145 5.37651,0.20771 2.76832,0.077 5.53628,0.12505 8.30494,0.0798 3.06086,-0.0673 6.1217,-0.13526 9.18264,-0.19444 2.95338,-0.11869 5.90226,-0.41455 8.85245,-0.6442 3.46244,-0.26748 6.92723,-0.45829 10.39234,-0.62993 3.59434,-0.17615 7.18958,-0.30621 10.78497,-0.42421 3.54424,-0.11514 7.08884,-0.20331 10.6335,-0.28468 3.52417,-0.0795 7.04852,-0.13748 10.5729,-0.19173 3.426,-0.0524 6.85208,-0.0928 10.27817,-0.12905 3.50021,-0.0361 7.00046,-0.0627 10.50071,-0.087 3.53138,-0.0237 7.06278,-0.0422 10.59418,-0.0586 3.34159,-0.0154 6.68318,-0.0283 10.02478,-0.0395 3.22618,-0.0104 6.45236,-0.0191 9.67854,-0.0266 3.16923,0.003 6.33853,-0.0411 9.50759,0.0148 3.47997,0.0687 6.94457,0.5192 10.40172,1.07654 3.26712,0.52036 6.50382,1.33958 9.72954,2.25218 3.0888,0.77586 6.13714,1.83915 9.16247,3.03484 2.73026,1.15586 5.4946,2.11571 8.24495,3.15739 2.7824,1.04412 5.58072,1.99106 8.39241,2.8454 2.86431,0.8522 5.75659,1.4696 8.65129,2.04318 3.04849,0.58623 6.10753,1.0385 9.16936,1.4392 2.92261,0.37085 5.85427,0.59986 8.78771,0.61743 2.97417,-0.0388 5.94917,-0.0656 8.92229,-0.19521 2.57883,-0.17405 5.14842,-0.56254 7.71458,-0.96663 2.71067,-0.37021 5.40255,-0.97613 8.09468,-1.56224 1.98535,-0.51169 4.01153,-0.90369 5.92768,-1.86311 1.65348,-0.74502 3.28126,-1.61954 4.85867,-2.66609 1.76806,-1.45883 3.60736,-2.69645 5.47929,-3.83022 2.98114,-1.73031 6.10634,-2.78486 9.23855,-3.70639 2.89167,-0.80395 5.80537,-1.4119 8.71927,-2.0066 0.34304,-0.0738 0.68609,-0.14769 1.02914,-0.22156 0,0 3.69402,37.65874 3.69402,37.65874 l 0,0 c -0.40341,0.0864 -0.80683,0.173 -1.21024,0.25949 -2.42722,0.49534 -4.8549,0.99356 -7.26561,1.64683 -1.5611,0.44784 -3.12687,0.91295 -4.63201,1.68756 -1.65601,0.92017 -3.15204,2.33977 -4.76969,3.39064 -2.48479,1.58508 -5.01147,3.02656 -7.60658,4.17074 -3.1838,1.39986 -6.43006,2.43533 -9.71981,3.12818 -3.03258,0.66022 -6.06593,1.33009 -9.1188,1.75421 -3.22551,0.50708 -6.45656,0.97898 -9.69909,1.16439 -3.2744,0.13496 -6.55043,0.18122 -9.82597,0.20989 -3.63469,-0.045 -7.26758,-0.28953 -10.88877,-0.76525 -3.44593,-0.45306 -6.88873,-0.96421 -10.31936,-1.62876 -3.48599,-0.69386 -6.96791,-1.45067 -10.41622,-2.48678 -3.2133,-0.98132 -6.41282,-2.0584 -9.59273,-3.25571 -2.84397,-1.08118 -5.70359,-2.07196 -8.52751,-3.26712 -2.41639,-0.96752 -4.8553,-1.79915 -7.32544,-2.41073 -2.54991,-0.72238 -5.1056,-1.39163 -7.68914,-1.79927 -2.63819,-0.4274 -5.27983,-0.8005 -7.93616,-0.85475 -3.04677,-0.0611 -6.09406,-10e-4 -9.14104,-0.0118 -3.22032,0.007 -6.44064,0.016 -9.66096,0.0266 -3.33414,0.0118 -6.66828,0.024 -10.00241,0.0394 -3.51827,0.0164 -7.03654,0.0348 -10.5548,0.0584 -3.47919,0.0241 -6.95838,0.0506 -10.43753,0.0864 -3.39816,0.0358 -6.79631,0.0759 -10.19439,0.128 -3.48055,0.0536 -6.96109,0.11085 -10.44144,0.18922 -3.48761,0.0801 -6.97516,0.16673 -10.46235,0.27991 -3.49887,0.11469 -6.9976,0.24103 -10.49545,0.41231 -3.30152,0.16325 -6.60275,0.34429 -9.90173,0.5987 -3.2881,0.25571 -6.57476,0.58819 -9.86712,0.69345 -3.08046,0.0595 -6.16082,0.12845 -9.24121,0.19547 -3.01076,0.0469 -6.02085,10e-4 -9.03122,-0.0835 -2.12139,-0.0551 -4.24345,-0.10596 -6.36282,-0.26126 -1.30202,-0.10936 -2.60662,-0.22622 -3.89572,-0.53191 0,0 4.2274,-37.53568 4.2274,-37.53568 z"
       inkscape:connector-curvature="0" />
    <path
       style="fill:#00ff00;fill-opacity:1;stroke:none"
       id="path3917"
       d="m 102.98394,716.04972 c 0.60294,-4.3e-4 0.62259,0.007 1.4202,-0.15458 1.75411,-0.31245 3.49476,-0.76154 5.23759,-1.18264 2.84556,-0.68366 5.71,-1.17658 8.57669,-1.62687 3.10821,-0.47565 6.22561,-0.80438 9.34409,-1.09678 3.34421,-0.30134 6.69161,-0.51826 10.03932,-0.71711 3.65413,-0.29152 7.31262,-0.163 10.96455,0.11069 3.72428,0.27533 7.4056,1.10084 11.04145,2.27478 3.52793,1.17365 6.9667,2.81775 10.36851,4.59736 3.17982,1.58835 6.14202,3.9 9.10517,6.17537 1.88409,1.43272 3.86453,2.55782 5.86751,3.58068 2.18849,1.1122 4.45164,1.85482 6.71509,2.55849 2.64354,0.7936 5.31107,1.39395 7.9841,1.93082 2.85725,0.56668 5.72693,0.98284 8.59803,1.36722 3.0419,0.40056 6.08998,0.68591 9.13904,0.94046 3.36999,0.27219 6.74262,0.46633 10.11536,0.64919 3.21428,0.1516 6.42937,-0.0332 9.64164,-0.19143 2.87333,-0.0765 5.71968,-0.60593 8.55885,-1.20336 2.91506,-0.73148 5.84322,-1.34049 8.76658,-1.99476 2.89656,-0.70416 5.78406,-1.4815 8.68299,-2.16514 2.99876,-0.71865 5.98277,-1.55883 8.97659,-2.31892 3.09096,-0.81658 6.17552,-1.6852 9.25886,-2.56065 3.38611,-0.99399 6.76812,-2.01386 10.16554,-2.92362 3.51115,-0.93008 7.04301,-1.67852 10.58137,-2.3501 3.44151,-0.68305 6.91986,-0.75137 10.38701,-0.69109 3.04595,0.12391 6.08449,0.48819 9.11699,0.90769 3.06777,0.46541 6.10784,1.2283 9.12874,2.12175 2.72025,0.80355 5.44796,1.5491 8.16852,2.35114 2.81828,0.82908 5.64385,1.60452 8.46025,2.44705 2.9031,0.89777 5.81987,1.69345 8.73199,2.52477 2.61495,0.77402 5.16382,1.93031 7.76603,2.7826 2.26144,0.73066 4.55113,1.24254 6.84454,1.70399 2.5013,0.47033 4.96372,1.29796 7.46985,1.71213 0.54536,0.0425 1.10293,0.0894 1.62409,-0.17897 0.0165,0.0746 -0.0903,-0.0449 -0.0666,-0.0618 0.70966,-0.50421 1.46124,-0.90748 2.17846,-1.39324 1.52212,-1.03654 3.0648,-2.00752 4.60728,-2.97778 0,0 10.20027,34.33142 10.20027,34.33142 l 0,0 c -1.35103,0.84828 -2.7022,1.69744 -4.03477,2.60584 -2.57784,1.72053 -5.19974,3.37007 -7.99077,4.21173 -3.17594,0.83703 -6.392,1.16214 -9.60985,0.59119 -2.65335,-0.48223 -5.27729,-1.20202 -7.91891,-1.79709 -3.02148,-0.61342 -6.03657,-1.30682 -9.01446,-2.28171 -2.3523,-0.78521 -4.67276,-1.7392 -7.0195,-2.55216 -2.98609,-0.8571 -5.97826,-1.66867 -8.95559,-2.59026 -2.78947,-0.83715 -5.5893,-1.59908 -8.38059,-2.42338 -2.73515,-0.80635 -5.47779,-1.55395 -8.21236,-2.36413 -2.12998,-0.63849 -4.27313,-1.18408 -6.43552,-1.53475 -2.33371,-0.33039 -4.67258,-0.60709 -7.0159,-0.73991 -2.23777,-0.0553 -4.48753,-0.0494 -6.70976,0.38177 -3.09389,0.58412 -6.18195,1.23726 -9.2522,2.04684 -3.30548,0.88197 -6.59387,1.88711 -9.88887,2.84737 -3.25241,0.92284 -6.50594,1.83973 -9.76681,2.69713 -3.09764,0.7847 -6.18424,1.65998 -9.28783,2.395 -2.96699,0.69605 -5.91989,1.5095 -8.8862,2.21175 -3.00013,0.66882 -6.00364,1.30434 -8.99612,2.04448 -3.7684,0.78943 -7.55102,1.43816 -11.36203,1.5655 -3.82158,0.18804 -7.64658,0.38409 -11.47021,0.18686 -3.54541,-0.19242 -7.09068,-0.39754 -10.63317,-0.68487 -3.3443,-0.28017 -6.68747,-0.59558 -10.02384,-1.03678 -3.26157,-0.43809 -6.52122,-0.91611 -9.76683,-1.56327 -3.30152,-0.66743 -6.59583,-1.41865 -9.85943,-2.41236 -3.34358,-1.05023 -6.67674,-2.20766 -9.90498,-3.874 -3.16967,-1.64554 -6.29883,-3.46642 -9.27863,-5.75651 -1.9064,-1.46406 -3.78546,-3.04153 -5.83085,-4.07076 -2.40568,-1.26956 -4.83478,-2.45756 -7.32995,-3.30326 -2.20205,-0.75953 -4.44443,-1.20518 -6.70438,-1.39862 -2.85074,-0.22636 -5.70705,-0.32808 -8.55973,-0.0897 -3.14688,0.18666 -6.2935,0.38944 -9.43715,0.67107 -2.75002,0.25668 -5.49922,0.54303 -8.24038,0.95874 -2.37924,0.37177 -4.75714,0.77339 -7.11915,1.33691 -2.13034,0.51419 -4.25907,1.05181 -6.404,1.42455 -1.4828,0.24486 -2.97122,0.45165 -4.46579,0.41783 0,0 0,-37.39976 0,-37.39976 z"
       inkscape:connector-curvature="0" />
    <path
       style="fill:none;stroke:#000000;stroke-width:2;stroke-linecap:butt;stroke-linejoin:miter;stroke-miterlimit:4;stroke-opacity:1;stroke-dasharray:12, 12;stroke-dashoffset:0"
       d="m 100.46729,491.86218 c 299.06542,0 299.06542,0 299.06542,0"
       id="path3919"
       inkscape:connector-curvature="0" />
    <path
       style="fill:none;stroke:#000000;stroke-width:2;stroke-linecap:butt;stroke-linejoin:miter;stroke-miterlimit:4;stroke-opacity:1;stroke-dasharray:12, 12;stroke-dashoffset:0"
       d="m 100.5,611.86218 c 299.06542,0 299.06542,0 299.06542,0"
       id="path3919-9"
       inkscape:connector-curvature="0" />
    <path
       style="fill:none;stroke:#000000;stroke-width:2;stroke-linecap:butt;stroke-linejoin:miter;stroke-miterlimit:4;stroke-opacity:1;stroke-dasharray:12, 12;stroke-dashoffset:0"
       d="m 100.46729,671.86218 c 299.06542,0 299.06542,0 299.06542,0"
       id="path3919-0"
       inkscape:connector-curvature="0" />
    <path
       style="fill:none;stroke:#000000;stroke-width:2;stroke-linecap:butt;stroke-linejoin:miter;stroke-miterlimit:4;stroke-opacity:1;stroke-dasharray:12, 12;stroke-dashoffset:0"
       d="m 100.46729,731.86218 c 299.06542,0 299.06542,0 299.06542,0"
       id="path3919-08"
       inkscape:connector-curvature="0" />
    <text
       xml:space="preserve"
       style="font-size:40px;font-style:normal;font-variant:normal;font-weight:normal;font-stretch:normal;line-height:125%;letter-spacing:0px;word-spacing:0px;fill:#000000;fill-opacity:1;stroke:none;font-family:Times New Roman;-inkscape-font-specification:Times New Roman"
       x="417.85715"
       y="740.93359"
       id="text3955"
       sodipodi:linespacing="125%"><tspan
         sodipodi:role="line"
         id="tspan3957"
         x="417.85715"
         y="740.93359"
         style="font-size:32px">n=1</tspan></text>
    <text
       xml:space="preserve"
       style="font-size:40px;font-style:normal;font-variant:normal;font-weight:normal;font-stretch:normal;line-height:125%;letter-spacing:0px;word-spacing:0px;fill:#000000;fill-opacity:1;stroke:none;font-family:Times New Roman;-inkscape-font-specification:Times New Roman"
       x="414.28574"
       y="680.2193"
       id="text3959"
       sodipodi:linespacing="125%"><tspan
         sodipodi:role="line"
         id="tspan3961"
         x="414.28574"
         y="680.2193"
         style="font-size:32px">n=2</tspan></text>
    <text
       xml:space="preserve"
       style="font-size:40px;font-style:normal;font-variant:normal;font-weight:normal;font-stretch:normal;line-height:125%;letter-spacing:0px;word-spacing:0px;fill:#000000;fill-opacity:1;stroke:none;font-family:Times New Roman;-inkscape-font-specification:Times New Roman"
       x="416.42856"
       y="623.79083"
       id="text3963"
       sodipodi:linespacing="125%"><tspan
         sodipodi:role="line"
         id="tspan3965"
         x="416.42856"
         y="623.79083"
         style="font-size:32px">n=3</tspan></text>
    <text
       xml:space="preserve"
       style="font-size:40px;font-style:normal;font-variant:normal;font-weight:normal;font-stretch:normal;line-height:125%;letter-spacing:0px;word-spacing:0px;fill:#000000;fill-opacity:1;stroke:none;font-family:Times New Roman;-inkscape-font-specification:Times New Roman"
       x="408.57141"
       y="499.50504"
       id="text3967"
       sodipodi:linespacing="125%"><tspan
         sodipodi:role="line"
         id="tspan3969"
         x="408.57141"
         y="499.50504"
         style="font-size:32px">n</tspan></text>
    <path
       style="fill:none;stroke:#000000;stroke-width:2;stroke-linecap:butt;stroke-linejoin:miter;stroke-miterlimit:4;stroke-opacity:1;stroke-dasharray:none;marker-end:url(#Arrow1Mend)"
       d="m -11.11168,731.86218 c 75.174147,0 75.761446,0 75.761446,0"
       id="path3971"
       inkscape:connector-curvature="0" />
    <path
       style="fill:none;stroke:#000000;stroke-width:2;stroke-linecap:butt;stroke-linejoin:miter;stroke-miterlimit:4;stroke-opacity:1;stroke-dasharray:none;marker-end:url(#Arrow1Mend)"
       d="m 7.0710688,754.61208 c 0,-291.90958 0,-294.19011 0,-294.19011"
       id="path3971-4"
       inkscape:connector-curvature="0" />
    <text
       xml:space="preserve"
       style="font-size:40px;font-style:normal;font-variant:normal;font-weight:normal;font-stretch:normal;line-height:125%;letter-spacing:0px;word-spacing:0px;fill:#000000;fill-opacity:1;stroke:none;font-family:Times New Roman;-inkscape-font-specification:Times New Roman"
       x="60.609154"
       y="756.38745"
       id="text4441"
       sodipodi:linespacing="125%"><tspan
         sodipodi:role="line"
         id="tspan4443"
         x="60.609154"
         y="756.38745"
         style="font-size:32px">x</tspan></text>
    <text
       xml:space="preserve"
       style="font-size:40px;font-style:normal;font-variant:normal;font-weight:normal;font-stretch:normal;line-height:125%;letter-spacing:0px;word-spacing:0px;fill:#000000;fill-opacity:1;stroke:none;font-family:Times New Roman;-inkscape-font-specification:Times New Roman"
       x="-19.192898"
       y="460.41281"
       id="text4445"
       sodipodi:linespacing="125%"><tspan
         sodipodi:role="line"
         id="tspan4447"
         x="-19.192898"
         y="460.41281"
         style="font-size:32px">z</tspan></text>
    <path
       style="fill:none;stroke:#000000;stroke-width:2.22336936;stroke-linecap:butt;stroke-linejoin:miter;stroke-miterlimit:4;stroke-opacity:1;stroke-dasharray:2.22336927, 4.44673855;stroke-dashoffset:0"
       d="m 236.3757,501.7407 0,99.87116"
       id="path4449"
       inkscape:connector-curvature="0" />
    <text
       xml:space="preserve"
       style="font-size:40px;font-style:normal;font-variant:normal;font-weight:normal;font-stretch:normal;line-height:125%;letter-spacing:0px;word-spacing:0px;fill:#000000;fill-opacity:1;stroke:none;font-family:Times New Roman;-inkscape-font-specification:Times New Roman"
       x="259.71072"
       y="516.09045"
       id="text4482"
       sodipodi:linespacing="125%"><tspan
         sodipodi:role="line"
         id="tspan4484"
         x="259.71072"
         y="516.09045"
         style="font-size:32px">u<tspan
   style="font-size:65.00091553%;baseline-shift:sub"
   id="tspan4490">n</tspan>(x,y)</tspan></text>
    <text
       xml:space="preserve"
       style="font-size:40px;font-style:normal;font-variant:normal;font-weight:normal;font-stretch:normal;line-height:125%;letter-spacing:0px;word-spacing:0px;fill:#000000;fill-opacity:1;stroke:none;font-family:Times New Roman;-inkscape-font-specification:Times New Roman"
       x="234.26297"
       y="763.09485"
       id="text4482-2"
       sodipodi:linespacing="125%"><tspan
         sodipodi:role="line"
         id="tspan4484-2"
         x="234.26297"
         y="763.09485"
         style="font-size:32px">u<tspan
   style="font-size:65.00091553%;baseline-shift:sub"
   id="tspan4516">1</tspan>(x,y)</tspan></text>
    <path
       style="fill:none;stroke:#000000;stroke-width:1;stroke-linecap:butt;stroke-linejoin:miter;stroke-miterlimit:4;stroke-opacity:1;stroke-dasharray:none;marker-end:url(#Arrow1Mend)"
       d="m 262.63966,492.0903 c 0,-19.43192 0,-19.58374 0,-19.58374"
       id="path3971-4-2"
       inkscape:connector-curvature="0" />
    <path
       style="fill:none;stroke:#000000;stroke-width:1;stroke-linecap:butt;stroke-linejoin:miter;stroke-miterlimit:4;stroke-opacity:1;stroke-dasharray:none;marker-end:url(#Arrow1Mend)"
       d="m 225.84344,731.33448 c 0,22.50365 0,22.67947 0,22.67947"
       id="path3971-4-2-3"
       inkscape:connector-curvature="0" />
    <path
       style="fill:none;stroke:#000000;stroke-width:2;stroke-linecap:butt;stroke-linejoin:miter;stroke-miterlimit:4;stroke-opacity:1;stroke-dasharray:2,4;stroke-dashoffset:0"
       d="m 110.71429,473.79075 c 22.02165,6.65925 46.69976,10.49989 70.0952,10.21774 21.65423,-0.26114 42.17342,-4.27137 59.33971,-7.63139 7.7184,-1.51075 19.58423,-4.42112 28.54908,-5.13411 10.11335,-0.80432 19.31249,-1.6818 28.05749,-0.38136 29.01407,4.31458 52.82998,17.65455 76.18856,19.33837 4.30038,0.30999 9.60777,0.12792 13.63218,-0.79957"
       id="path4610"
       inkscape:connector-curvature="0"
       sodipodi:nodetypes="csssssc" />
  </g>
</svg>
