<?xml version="1.0" encoding="UTF-8" standalone="no"?>
<!-- Created with Inkscape (http://www.inkscape.org/) -->

<svg
   xmlns:dc="http://purl.org/dc/elements/1.1/"
   xmlns:cc="http://creativecommons.org/ns#"
   xmlns:rdf="http://www.w3.org/1999/02/22-rdf-syntax-ns#"
   xmlns:svg="http://www.w3.org/2000/svg"
   xmlns="http://www.w3.org/2000/svg"
   xmlns:sodipodi="http://sodipodi.sourceforge.net/DTD/sodipodi-0.dtd"
   xmlns:inkscape="http://www.inkscape.org/namespaces/inkscape"
   width="835.99188"
   height="512.32074"
   id="svg13511"
   version="1.1"
   inkscape:version="0.48.1 "
   sodipodi:docname="GeometricBroadening3.svg">
  <defs
     id="defs13513">
    <marker
       inkscape:stockid="Arrow2Lstart"
       orient="auto"
       refY="0.0"
       refX="0.0"
       id="Arrow2Lstart"
       style="overflow:visible">
      <path
         id="path4415"
         style="font-size:12.0;fill-rule:evenodd;stroke-width:0.62500000;stroke-linejoin:round"
         d="M 8.7185878,4.0337352 L -2.2072895,0.016013256 L 8.7185884,-4.0017078 C 6.9730900,-1.6296469 6.9831476,1.6157441 8.7185878,4.0337352 z "
         transform="scale(1.1) translate(1,0)" />
    </marker>
    <marker
       inkscape:stockid="Arrow2Lend"
       orient="auto"
       refY="0.0"
       refX="0.0"
       id="Arrow2Lend"
       style="overflow:visible;">
      <path
         id="path4418"
         style="font-size:12.0;fill-rule:evenodd;stroke-width:0.62500000;stroke-linejoin:round;"
         d="M 8.7185878,4.0337352 L -2.2072895,0.016013256 L 8.7185884,-4.0017078 C 6.9730900,-1.6296469 6.9831476,1.6157441 8.7185878,4.0337352 z "
         transform="scale(1.1) rotate(180) translate(1,0)" />
    </marker>
    <marker
       inkscape:stockid="Arrow1Sstart"
       orient="auto"
       refY="0.0"
       refX="0.0"
       id="Arrow1Sstart"
       style="overflow:visible">
      <path
         id="path4409"
         d="M 0.0,0.0 L 5.0,-5.0 L -12.5,0.0 L 5.0,5.0 L 0.0,0.0 z "
         style="fill-rule:evenodd;stroke:#000000;stroke-width:1.0pt;marker-start:none"
         transform="scale(0.2) translate(6,0)" />
    </marker>
    <marker
       inkscape:stockid="Arrow1Lend"
       orient="auto"
       refY="0"
       refX="0"
       id="Arrow1Lend"
       style="overflow:visible">
      <path
         id="path4400"
         d="M 0,0 5,-5 -12.5,0 5,5 0,0 z"
         style="fill-rule:evenodd;stroke:#000000;stroke-width:1pt;marker-start:none"
         transform="matrix(-0.8,0,0,-0.8,-10,0)"
         inkscape:connector-curvature="0" />
    </marker>
    <marker
       inkscape:stockid="Arrow1Lstart"
       orient="auto"
       refY="0"
       refX="0"
       id="Arrow1Lstart"
       style="overflow:visible">
      <path
         id="path4397"
         d="M 0,0 5,-5 -12.5,0 5,5 0,0 z"
         style="fill-rule:evenodd;stroke:#000000;stroke-width:1pt;marker-start:none"
         transform="matrix(0.8,0,0,0.8,10,0)"
         inkscape:connector-curvature="0" />
    </marker>
    <marker
       inkscape:stockid="Arrow2Mstart"
       orient="auto"
       refY="0"
       refX="0"
       id="Arrow2Mstart"
       style="overflow:visible">
      <path
         id="path4421"
         style="font-size:12px;fill-rule:evenodd;stroke-width:0.625;stroke-linejoin:round"
         d="M 8.7185878,4.0337352 -2.2072895,0.01601326 8.7185884,-4.0017078 c -1.7454984,2.3720609 -1.7354408,5.6174519 -6e-7,8.035443 z"
         transform="scale(0.6,0.6)"
         inkscape:connector-curvature="0" />
    </marker>
    <marker
       inkscape:stockid="Arrow2Mend"
       orient="auto"
       refY="0"
       refX="0"
       id="Arrow2Mend"
       style="overflow:visible">
      <path
         id="path4424"
         style="font-size:12px;fill-rule:evenodd;stroke-width:0.625;stroke-linejoin:round"
         d="M 8.7185878,4.0337352 -2.2072895,0.01601326 8.7185884,-4.0017078 c -1.7454984,2.3720609 -1.7354408,5.6174519 -6e-7,8.035443 z"
         transform="scale(-0.6,-0.6)"
         inkscape:connector-curvature="0" />
    </marker>
    <marker
       inkscape:stockid="Arrow2Mstart"
       orient="auto"
       refY="0"
       refX="0"
       id="Arrow2Mstart-3"
       style="overflow:visible">
      <path
         id="path4421-4"
         style="font-size:12px;fill-rule:evenodd;stroke-width:0.625;stroke-linejoin:round"
         d="M 8.7185878,4.0337352 -2.2072895,0.01601326 8.7185884,-4.0017078 c -1.7454984,2.3720609 -1.7354408,5.6174519 -6e-7,8.035443 z"
         transform="scale(0.6,0.6)"
         inkscape:connector-curvature="0" />
    </marker>
    <marker
       inkscape:stockid="Arrow2Mend"
       orient="auto"
       refY="0"
       refX="0"
       id="Arrow2Mend-0"
       style="overflow:visible">
      <path
         id="path4424-7"
         style="font-size:12px;fill-rule:evenodd;stroke-width:0.625;stroke-linejoin:round"
         d="M 8.7185878,4.0337352 -2.2072895,0.01601326 8.7185884,-4.0017078 c -1.7454984,2.3720609 -1.7354408,5.6174519 -6e-7,8.035443 z"
         transform="scale(-0.6,-0.6)"
         inkscape:connector-curvature="0" />
    </marker>
  </defs>
  <sodipodi:namedview
     inkscape:document-units="in"
     pagecolor="#ffffff"
     bordercolor="#666666"
     borderopacity="1.0"
     inkscape:pageopacity="0.0"
     inkscape:pageshadow="2"
     inkscape:zoom="0.75024143"
     inkscape:cx="323.36087"
     inkscape:cy="114.88821"
     inkscape:current-layer="layer1"
     id="namedview13515"
     showgrid="false"
     units="in"
     fit-margin-top="0"
     fit-margin-left="0"
     fit-margin-right="0"
     fit-margin-bottom="0"
     inkscape:window-width="1024"
     inkscape:window-height="712"
     inkscape:window-x="-4"
     inkscape:window-y="-4"
     inkscape:window-maximized="1" />
  <metadata
     id="metadata13517">
    <rdf:RDF>
      <cc:Work
         rdf:about="">
        <dc:format>image/svg+xml</dc:format>
        <dc:type
           rdf:resource="http://purl.org/dc/dcmitype/StillImage" />
        <dc:title />
      </cc:Work>
    </rdf:RDF>
  </metadata>
  <g
     inkscape:label="Layer 1"
     inkscape:groupmode="layer"
     id="layer1"
     transform="translate(-120.41892,38.330191)">
    <path
       style="fill:none;stroke:#ff0000;stroke-width:2;stroke-linecap:butt;stroke-linejoin:miter;stroke-opacity:1;stroke-miterlimit:4;stroke-dasharray:none"
       d="m 584.90566,430.09434 c 150,-150 151.41509,-151.41509 151.41509,-151.41509"
       id="path13520"
       inkscape:connector-curvature="0" />
    <path
       style="fill:none;stroke:#000000;stroke-width:3;stroke-linecap:butt;stroke-linejoin:miter;stroke-opacity:1;stroke-miterlimit:4;stroke-dasharray:none"
       d="m 179.40173,-37.830191 c 0,511.320751 0,511.320751 0,511.320751 l -1.2563,0"
       id="path13522"
       inkscape:connector-curvature="0" />
    <path
       style="fill:none;stroke:#000000;stroke-width:3;stroke-linecap:butt;stroke-linejoin:miter;stroke-miterlimit:4;stroke-opacity:1;stroke-dasharray:3, 6;stroke-dashoffset:0;marker-start:url(#Arrow2Mstart-3);marker-end:url(#Arrow2Mstart-3)"
       d="m 653.32329,352.73585 -472.29093,0 0.92426,0"
       id="path13524"
       inkscape:connector-curvature="0" />
    <path
       style="fill:none;stroke:#000000;stroke-width:3;stroke-linecap:butt;stroke-linejoin:miter;stroke-miterlimit:4;stroke-opacity:1;stroke-dasharray:3,6;stroke-dashoffset:0"
       d="M 178.30189,113.11321 C 660.37736,352.73585 660.37736,352.73585 660.37736,352.73585"
       id="path13526"
       inkscape:connector-curvature="0" />
    <path
       style="fill:none;stroke:#000000;stroke-width:3;stroke-linecap:butt;stroke-linejoin:miter;stroke-miterlimit:4;stroke-opacity:1;stroke-dasharray:3,6;stroke-dashoffset:0"
       d="M 179.71699,1.931846 C 735.37738,278.20755 735.37738,278.20755 735.37738,278.20755"
       id="path13526-1"
       inkscape:connector-curvature="0" />
    <path
       style="fill:none;stroke:#ff0000;stroke-width:3;stroke-linecap:butt;stroke-linejoin:miter;stroke-miterlimit:4;stroke-opacity:1;stroke-dasharray:none"
       d="m 584.47849,430.44103 370.45992,0 c 0,-151.95109 0,-152.61754 0,-152.61754 l 0.0875,0 0,0"
       id="path13546"
       inkscape:connector-curvature="0" />
    <path
       style="fill:none;stroke:#ff0000;stroke-width:3;stroke-linecap:butt;stroke-linejoin:miter;stroke-miterlimit:4;stroke-opacity:1;stroke-dasharray:none"
       d="M 179.11605,228.6561 C 584.92704,430.29097 584.92704,430.29097 584.92704,430.29097"
       id="path13526-3"
       inkscape:connector-curvature="0" />
    <path
       style="fill:none;stroke:#ff0000;stroke-width:3;stroke-linecap:butt;stroke-linejoin:miter;stroke-miterlimit:4;stroke-opacity:1;stroke-dasharray:none"
       d="m 736.65009,278.48994 218.76072,0"
       id="path13546-1"
       inkscape:connector-curvature="0" />
    <path
       sodipodi:type="arc"
       style="fill:#000000;fill-opacity:1;stroke:none"
       id="path7787-9-4"
       sodipodi:cx="131.47282"
       sodipodi:cy="280.87982"
       sodipodi:rx="25.446354"
       sodipodi:ry="25.446354"
       d="m 156.91918,280.87982 c 0,14.05363 -11.39272,25.44636 -25.44636,25.44636 -14.05363,0 -25.44635,-11.39273 -25.44635,-25.44636 0,-14.05363 11.39272,-25.44635 25.44635,-25.44635 14.05364,0 25.44636,11.39272 25.44636,25.44635 z"
       transform="matrix(0.26391148,0,0,0.26391148,626.87153,278.62275)"
       inkscape:transform-center-x="6.7155783"
       inkscape:transform-center-y="6.7155874" />
    <path
       style="fill:none;stroke:#000000;stroke-width:3;stroke-linecap:butt;stroke-linejoin:miter;stroke-miterlimit:4;stroke-opacity:1;stroke-dasharray:9,9;stroke-dashoffset:0"
       d="m 734.43025,278.48994 c 0,151.95109 0,151.95109 0,151.95109"
       id="path14126"
       inkscape:connector-curvature="0" />
    <text
       xml:space="preserve"
       style="font-size:36px;font-style:normal;font-weight:normal;line-height:125%;letter-spacing:0px;word-spacing:0px;fill:#000000;fill-opacity:1;stroke:none;font-family:Sans"
       x="744.67535"
       y="367.98401"
       id="text14128"
       sodipodi:linespacing="125%"><tspan
         sodipodi:role="line"
         id="tspan14130"
         x="744.67535"
         y="367.98401">Y<tspan
   style="font-size:65.00091553%;baseline-shift:sub"
   id="tspan14132">b</tspan></tspan></text>
    <text
       xml:space="preserve"
       style="font-size:36px;font-style:normal;font-weight:normal;line-height:125%;letter-spacing:0px;word-spacing:0px;fill:#000000;fill-opacity:1;stroke:none;font-family:Sans"
       x="649.12439"
       y="468.83881"
       id="text14134"
       sodipodi:linespacing="125%"><tspan
         sodipodi:role="line"
         id="tspan14136"
         x="649.12439"
         y="468.83881">a</tspan></text>
    <path
       style="fill:none;stroke:#000000;stroke-width:2;stroke-linecap:butt;stroke-linejoin:miter;stroke-miterlimit:4;stroke-opacity:1;stroke-dasharray:none;marker-start:url(#Arrow2Mstart);marker-end:url(#Arrow2Mend)"
       d="m 586.82873,442.97722 c 126.60386,0 126.60386,0 126.60386,0 l 20.51123,0.8317"
       id="path9315"
       inkscape:connector-curvature="0"
       sodipodi:nodetypes="ccc" />
    <path
       style="fill:none;stroke:#000000;stroke-width:2;stroke-linecap:butt;stroke-linejoin:miter;stroke-opacity:1;stroke-miterlimit:4;stroke-dasharray:none"
       d="m 609.93231,406.71465 c 2.43226,0.89882 8.80509,3.25584 12.87684,10.28975 4.07174,7.03392 2.27343,11.89727 2.27343,11.89727"
       id="path5574-3"
       inkscape:connector-curvature="0"
       sodipodi:nodetypes="ccc" />
    <text
       xml:space="preserve"
       style="font-size:36px;font-style:normal;font-weight:normal;line-height:125%;letter-spacing:0px;word-spacing:0px;fill:#000000;fill-opacity:1;stroke:none;font-family:Sans"
       x="628.40619"
       y="418.23764"
       id="text7851"
       sodipodi:linespacing="125%"><tspan
         sodipodi:role="line"
         id="tspan7853"
         x="628.40619"
         y="418.23764">ω</tspan></text>
    <text
       xml:space="preserve"
       style="font-size:36px;font-style:normal;font-weight:normal;line-height:125%;letter-spacing:0px;word-spacing:0px;fill:#000000;fill-opacity:1;stroke:none;font-family:Sans"
       x="357.21835"
       y="383.78937"
       id="text15149"
       sodipodi:linespacing="125%"><tspan
         sodipodi:role="line"
         id="tspan15151"
         x="357.21835"
         y="383.78937">S</tspan></text>
    <path
       style="fill:none;stroke:#000000;stroke-width:2;stroke-linecap:butt;stroke-linejoin:miter;stroke-opacity:1;marker-start:url(#Arrow2Mstart);marker-end:url(#Arrow2Mend);stroke-miterlimit:4;stroke-dasharray:none"
       d="m 147.95237,114.54271 c 0,232.17529 0,232.17529 0,232.17529 l 0,1.30435 0.33323,5.18867"
       id="path15153"
       inkscape:connector-curvature="0"
       sodipodi:nodetypes="cccc" />
    <text
       xml:space="preserve"
       style="font-size:36px;font-style:normal;font-weight:normal;line-height:125%;letter-spacing:0px;word-spacing:0px;fill:#000000;fill-opacity:1;stroke:none;font-family:Sans"
       x="119.69822"
       y="246.6219"
       id="text15531"
       sodipodi:linespacing="125%"><tspan
         sodipodi:role="line"
         id="tspan15533"
         x="119.69822"
         y="246.6219">Z</tspan></text>
    <path
       style="fill:none;stroke:#000000;stroke-width:2;stroke-linecap:butt;stroke-linejoin:miter;stroke-opacity:1;marker-start:url(#Arrow2Mstart);marker-end:url(#Arrow2Mend);stroke-miterlimit:4;stroke-dasharray:none"
       d="m 147.97689,3.7256036 c 0,103.3850364 0,103.3850364 0,103.3850364 l 0,0.58082 0.33323,2.31045"
       id="path15153-5"
       inkscape:connector-curvature="0"
       sodipodi:nodetypes="cccc" />
    <text
       xml:space="preserve"
       style="font-size:36px;font-style:normal;font-weight:normal;line-height:125%;letter-spacing:0px;word-spacing:0px;fill:#000000;fill-opacity:1;stroke:none;font-family:Sans"
       x="120.64072"
       y="68.488327"
       id="text15565"
       sodipodi:linespacing="125%"><tspan
         sodipodi:role="line"
         id="tspan15567"
         x="120.64072"
         y="68.488327">c</tspan></text>
    <path
       style="fill:none;stroke:#000000;stroke-width:3;stroke-linecap:butt;stroke-linejoin:miter;stroke-miterlimit:4;stroke-opacity:1;stroke-dasharray:3,6;stroke-dashoffset:0"
       d="m 661.63897,353.12503 c 0,-112.15817 0,-112.15817 0,-112.15817 l 0,0 0,0"
       id="path15569"
       inkscape:connector-curvature="0" />
    <path
       style="fill:none;stroke:#000000;stroke-width:3;stroke-linecap:butt;stroke-linejoin:miter;stroke-miterlimit:4;stroke-opacity:1;stroke-dasharray:3,6;stroke-dashoffset:0"
       d="m 734.2119,278.66708 -72.57293,0 0,0"
       id="path15571"
       inkscape:connector-curvature="0" />
    <path
       style="fill:none;stroke:#000000;stroke-width:2;stroke-linecap:butt;stroke-linejoin:miter;stroke-opacity:1;stroke-miterlimit:4;stroke-dasharray:none"
       d="m 661.16771,289.97715 c 11.78132,0 11.78132,0 11.78132,0 l 0,-11.31007"
       id="path15573"
       inkscape:connector-curvature="0" />
    <path
       style="fill:none;stroke:#000000;stroke-width:2;stroke-linecap:butt;stroke-linejoin:miter;stroke-miterlimit:4;stroke-opacity:1;stroke-dasharray:none"
       d="m 689.55329,277.76231 c -0.89698,-1.77452 -3.24598,-6.42525 -1.69676,-12.78617 1.54926,-6.36095 5.26244,-8.4384 5.26244,-8.4384"
       id="path5574-3-2"
       inkscape:connector-curvature="0"
       sodipodi:nodetypes="ccc" />
    <text
       xml:space="preserve"
       style="font-size:36px;font-style:normal;font-weight:normal;line-height:125%;letter-spacing:0px;word-spacing:0px;fill:#000000;fill-opacity:1;stroke:none;font-family:Sans"
       x="700.44122"
       y="255.83058"
       id="text15593"
       sodipodi:linespacing="125%"><tspan
         sodipodi:role="line"
         id="tspan15595"
         x="700.44122"
         y="255.83058">B</tspan></text>
    <path
       sodipodi:type="arc"
       style="fill:#000000;fill-opacity:1;stroke:none"
       id="path7787-9-4-4-4"
       sodipodi:cx="131.47282"
       sodipodi:cy="280.87982"
       sodipodi:rx="25.446354"
       sodipodi:ry="25.446354"
       d="m 156.91918,280.87982 c 0,14.05363 -11.39272,25.44636 -25.44636,25.44636 -14.05363,0 -25.44635,-11.39273 -25.44635,-25.44636 0,-14.05363 11.39272,-25.44635 25.44635,-25.44635 14.05364,0 25.44636,11.39272 25.44636,25.44635 z"
       transform="matrix(0.15096505,0,0,0.15096505,713.70708,236.98349)"
       inkscape:transform-center-x="3.841507"
       inkscape:transform-center-y="3.8415125" />
    <path
       sodipodi:type="arc"
       style="fill:#000000;fill-opacity:1;stroke:none"
       id="path7787-9-4-4-0"
       sodipodi:cx="131.47282"
       sodipodi:cy="280.87982"
       sodipodi:rx="25.446354"
       sodipodi:ry="25.446354"
       d="m 156.91918,280.87982 c 0,14.05363 -11.39272,25.44636 -25.44636,25.44636 -14.05363,0 -25.44635,-11.39273 -25.44635,-25.44636 0,-14.05363 11.39272,-25.44635 25.44635,-25.44635 14.05364,0 25.44636,11.39272 25.44636,25.44635 z"
       transform="matrix(0.15096505,0,0,0.15096505,159.21891,-40.260601)"
       inkscape:transform-center-x="3.8415079"
       inkscape:transform-center-y="3.8415128" />
    <path
       sodipodi:type="arc"
       style="fill:#000000;fill-opacity:1;stroke:none"
       id="path7787-9-2"
       sodipodi:cx="131.47282"
       sodipodi:cy="280.87982"
       sodipodi:rx="25.446354"
       sodipodi:ry="25.446354"
       d="m 156.91918,280.87982 c 0,14.05363 -11.39272,25.44636 -25.44636,25.44636 -14.05363,0 -25.44635,-11.39273 -25.44635,-25.44636 0,-14.05363 11.39272,-25.44635 25.44635,-25.44635 14.05364,0 25.44636,11.39272 25.44636,25.44635 z"
       transform="matrix(0.28016725,0,0,0.28016725,143.90489,35.260064)"
       inkscape:transform-center-x="7.1292242"
       inkscape:transform-center-y="7.1292414" />
  </g>
</svg>
