<?xml version="1.0" encoding="UTF-8" standalone="no"?>
<!-- Created with Inkscape (http://www.inkscape.org/) -->

<svg
   xmlns:osb="http://www.openswatchbook.org/uri/2009/osb"
   xmlns:dc="http://purl.org/dc/elements/1.1/"
   xmlns:cc="http://creativecommons.org/ns#"
   xmlns:rdf="http://www.w3.org/1999/02/22-rdf-syntax-ns#"
   xmlns:svg="http://www.w3.org/2000/svg"
   xmlns="http://www.w3.org/2000/svg"
   xmlns:sodipodi="http://sodipodi.sourceforge.net/DTD/sodipodi-0.dtd"
   xmlns:inkscape="http://www.inkscape.org/namespaces/inkscape"
   width="343.70917"
   height="242.42595"
   id="svg2"
   version="1.1"
   inkscape:version="0.48.3.1 r9886"
   sodipodi:docname="absorption_LAXS.svg">
  <sodipodi:namedview
     id="base"
     pagecolor="#ffffff"
     bordercolor="#666666"
     borderopacity="1.0"
     inkscape:pageopacity="0.0"
     inkscape:pageshadow="2"
     inkscape:zoom="1.979899"
     inkscape:cx="81.016073"
     inkscape:cy="129.75522"
     inkscape:document-units="px"
     inkscape:current-layer="layer1"
     showgrid="false"
     inkscape:window-width="1920"
     inkscape:window-height="1056"
     inkscape:window-x="0"
     inkscape:window-y="24"
     inkscape:window-maximized="1"
     fit-margin-top="0"
     fit-margin-left="0"
     fit-margin-right="0"
     fit-margin-bottom="0" />
  <defs
     id="defs4">
    <marker
       style="overflow:visible"
       id="Arrow1Mstart"
       refX="0"
       refY="0"
       orient="auto"
       inkscape:stockid="Arrow1Mstart">
      <path
         transform="matrix(0.4,0,0,0.4,4,0)"
         style="fill-rule:evenodd;stroke:#000000;stroke-width:1pt"
         d="M 0,0 5,-5 -12.5,0 5,5 0,0 z"
         id="path3767"
         inkscape:connector-curvature="0" />
    </marker>
    <marker
       style="overflow:visible"
       id="Arrow1Lstart"
       refX="0"
       refY="0"
       orient="auto"
       inkscape:stockid="Arrow1Lstart">
      <path
         transform="matrix(0.8,0,0,0.8,10,0)"
         style="fill-rule:evenodd;stroke:#000000;stroke-width:1pt"
         d="M 0,0 5,-5 -12.5,0 5,5 0,0 z"
         id="path3761"
         inkscape:connector-curvature="0" />
    </marker>
    <linearGradient
       osb:paint="solid"
       id="linearGradient8527">
      <stop
         id="stop8529"
         offset="0"
         style="stop-color:#000000;stop-opacity:1;" />
    </linearGradient>
    <marker
       style="overflow:visible"
       id="Arrow1Lend"
       refX="0"
       refY="0"
       orient="auto"
       inkscape:stockid="Arrow1Lend">
      <path
         inkscape:connector-curvature="0"
         transform="matrix(-0.8,0,0,-0.8,-10,0)"
         style="fill-rule:evenodd;stroke:#000000;stroke-width:1pt"
         d="M 0,0 5,-5 -12.5,0 5,5 0,0 z"
         id="path3764" />
    </marker>
    <marker
       style="overflow:visible"
       id="Arrow1Mend"
       refX="0"
       refY="0"
       orient="auto"
       inkscape:stockid="Arrow1Mend">
      <path
         inkscape:connector-curvature="0"
         transform="matrix(-0.4,0,0,-0.4,-4,0)"
         style="fill-rule:evenodd;stroke:#000000;stroke-width:1pt"
         d="M 0,0 5,-5 -12.5,0 5,5 0,0 z"
         id="path3770" />
    </marker>
    <marker
       style="overflow:visible"
       id="Arrow1Mend-9"
       refX="0"
       refY="0"
       orient="auto"
       inkscape:stockid="Arrow1Mend">
      <path
         inkscape:connector-curvature="0"
         transform="matrix(-0.4,0,0,-0.4,-4,0)"
         style="fill-rule:evenodd;stroke:#000000;stroke-width:1pt"
         d="M 0,0 5,-5 -12.5,0 5,5 0,0 z"
         id="path3770-3" />
    </marker>
    <marker
       style="overflow:visible"
       id="Arrow1Mend-1"
       refX="0"
       refY="0"
       orient="auto"
       inkscape:stockid="Arrow1Mend">
      <path
         transform="matrix(-0.4,0,0,-0.4,-4,0)"
         style="fill-rule:evenodd;stroke:#000000;stroke-width:1pt"
         d="M 0,0 5,-5 -12.5,0 5,5 0,0 z"
         id="path3770-5"
         inkscape:connector-curvature="0" />
    </marker>
  </defs>
  <metadata
     id="metadata7">
    <rdf:RDF>
      <cc:Work
         rdf:about="">
        <dc:format>image/svg+xml</dc:format>
        <dc:type
           rdf:resource="http://purl.org/dc/dcmitype/StillImage" />
        <dc:title />
      </cc:Work>
    </rdf:RDF>
  </metadata>
  <g
     transform="translate(-160.96759,-526.76864)"
     id="layer1"
     inkscape:groupmode="layer"
     inkscape:label="Layer 1">
    <rect
       y="606.88843"
       x="161.96759"
       height="161.11932"
       width="318.19806"
       id="rect7081"
       style="opacity:1;fill:#00ff00;fill-opacity:1;stroke:none;stroke-width:2;stroke-miterlimit:4;stroke-opacity:1;stroke-dasharray:none;stroke-dashoffset:0" />
    <path
       inkscape:connector-curvature="0"
       id="path2987"
       d="m 447.32209,565.78806 c 0,129.50436 0,131.31986 0,131.31986"
       style="fill:none;stroke:#000000;stroke-width:0.99999994px;stroke-linecap:butt;stroke-linejoin:miter;stroke-opacity:1;marker-mid:none;marker-end:url(#Arrow1Mend-1)" />
    <g
       id="g4768"
       transform="matrix(0.4543928,0,0,0.4543928,305.26604,549.89648)">
      <g
         word-spacing="normal"
         letter-spacing="normal"
         font-size-adjust="none"
         font-stretch="normal"
         font-weight="normal"
         font-variant="normal"
         font-style="normal"
         stroke-miterlimit="10.433"
         xml:space="preserve"
         transform="matrix(1.0629921,0,0,-1.0629921,-186.02362,789.27165)"
         id="content"
         style="font-style:normal;font-variant:normal;font-weight:normal;font-stretch:normal;letter-spacing:normal;word-spacing:normal;text-anchor:start;fill:none;stroke:#000000;stroke-width:2.20073915;stroke-linecap:butt;stroke-linejoin:miter;stroke-miterlimit:10.43299961;stroke-opacity:1;stroke-dasharray:none;stroke-dashoffset:0"><path
           id="path4771"
           d="m 462.14,410.34 0.25,0.27 0.24,0.25 0.24,0.25 0.23,0.24 0.22,0.23 0.22,0.22 0.21,0.22 0.2,0.21 0.2,0.2 0.2,0.19 0.19,0.19 0.19,0.19 0.18,0.17 0.19,0.18 0.35,0.33 0.34,0.32 0.33,0.3 0.33,0.29 0.32,0.29 0.65,0.56 0.33,0.29 0.33,0.28 c 0,0.05 3.08,2.69 4.88,4.49 4.73,4.64 5.83,7.03 5.83,7.21 0,0.5 -0.46,0.5 -0.55,0.5 -0.35,0 -0.5,-0.09 -0.75,-0.54 -1.49,-2.39 -2.53,-3.19 -3.74,-3.19 -1.2,0 -1.79,0.75 -2.54,1.59 -0.94,1.16 -1.78,2.14 -3.44,2.14 -3.73,0 -6.02,-4.62 -6.02,-5.67 0,-0.25 0.14,-0.54 0.6,-0.54 0.45,0 0.54,0.25 0.64,0.54 0.95,2.3 3.84,2.35 4.23,2.35 1.05,0 2,-0.36 3.14,-0.75 2,-0.75 2.55,-0.75 3.85,-0.75 -1.8,-2.14 -5.99,-5.74 -6.92,-6.53 l -4.49,-4.18 c -3.39,-3.34 -5.14,-6.18 -5.14,-6.53 0,-0.5 0.5,-0.5 0.59,-0.5 0.41,0 0.5,0.1 0.8,0.64 1.16,1.75 2.64,3.1 4.24,3.1 1.15,0 1.65,-0.46 2.89,-1.89 0.86,-1.05 1.75,-1.85 3.18,-1.85 4.94,0 7.83,6.33 7.83,7.67 0,0.25 -0.2,0.5 -0.59,0.5 -0.46,0 -0.55,-0.29 -0.71,-0.65 -1.14,-3.24 -4.32,-4.17 -5.98,-4.17 -0.98,0 -1.89,0.29 -2.94,0.64 -1.68,0.64 -2.43,0.84 -3.48,0.84 -0.1,0 -0.89,0 -1.35,-0.14 z"
           inkscape:connector-curvature="0"
           style="fill:#000000;stroke-width:0" /></g>    </g>
    <path
       style="fill:none;stroke:#000000;stroke-width:1px;stroke-linecap:butt;stroke-linejoin:miter;stroke-opacity:1;marker-mid:none;marker-end:url(#Arrow1Mend)"
       d="m 182.18664,567.5516 c 153.98191,91.25649 153.98191,91.25649 153.98191,91.25649"
       id="path5159"
       inkscape:connector-curvature="0" />
    <path
       style="fill:none;stroke:#000000;stroke-width:0.99999994px;stroke-linecap:butt;stroke-linejoin:miter;stroke-opacity:1;marker-mid:none;marker-end:url(#Arrow1Mend)"
       d="M 337.04269,659.28605 C 446.76052,549.04544 446.76052,549.04544 446.76052,549.04544"
       id="path5159-0"
       inkscape:connector-curvature="0" />
    <g
       transform="matrix(0.43407819,0,0,0.43407819,74.107457,447.63901)"
       id="g6123">
      <g
         style="font-style:normal;font-variant:normal;font-weight:normal;font-stretch:normal;letter-spacing:normal;word-spacing:normal;text-anchor:start;fill:none;stroke:#000000;stroke-width:2.3037324;stroke-linecap:butt;stroke-linejoin:miter;stroke-miterlimit:10.43299961;stroke-opacity:1;stroke-dasharray:none;stroke-dashoffset:0"
         id="g6125"
         transform="matrix(1.0629921,0,0,-1.0629921,-186.02362,789.27165)"
         xml:space="preserve"
         stroke-miterlimit="10.433"
         font-style="normal"
         font-variant="normal"
         font-weight="normal"
         font-stretch="normal"
         font-size-adjust="none"
         letter-spacing="normal"
         word-spacing="normal"><path
           style="fill:#000000;stroke-width:0"
           inkscape:connector-curvature="0"
           d="m 485.66,424.73 0,0.21 -0.01,0.2 -0.01,0.2 -0.02,0.19 -0.02,0.18 -0.03,0.18 -0.03,0.17 -0.04,0.16 -0.04,0.16 -0.04,0.16 -0.05,0.14 -0.05,0.14 -0.05,0.13 -0.06,0.13 -0.07,0.12 -0.06,0.12 -0.07,0.1 -0.07,0.1 -0.08,0.1 -0.08,0.09 -0.08,0.08 -0.08,0.07 -0.08,0.07 -0.09,0.06 -0.09,0.05 -0.09,0.05 -0.1,0.04 -0.09,0.03 -0.1,0.02 -0.1,0.02 -0.1,0.01 -0.1,0 c -1.3,0 -2.64,-1.18 -2.64,-2.34 0,-0.48 0.23,-1.03 0.73,-1.48 0.86,-0.75 1.75,-2.1 1.75,-4.19 0,-2 -0.95,-4.83 -2.48,-7.13 -1.5,-2.14 -3.35,-3.82 -5.69,-3.82 -2.85,0 -4.39,1.78 -4.83,4.46 0.55,1.3 1.69,4.49 1.69,5.9 0,0.59 -0.25,1.09 -0.89,1.09 -0.41,0 -0.96,-0.11 -1.35,-0.84 -0.54,-1 -1.15,-4.24 -1.15,-6.04 -1.64,-2.34 -3.63,-4.57 -6.77,-4.57 -3.3,0 -4.34,2.93 -4.34,5.71 0,6.24 5.09,11.47 5.09,12.11 0,0.55 -0.41,0.96 -0.95,0.96 -0.66,0 -1,-0.66 -1.3,-1.11 -2.55,-3.69 -4.44,-9.61 -4.44,-14.14 0,-3.44 1.16,-7.13 5.24,-7.13 3.53,0 5.87,2.49 7.67,5.24 0.45,-2.89 2.39,-5.24 5.48,-5.24 3.89,0 6.29,3.03 8.07,6.78 1.2,2.44 3.09,9.21 3.09,12.3 z"
           id="path6127" /></g>    </g>
    <g
       transform="matrix(0.35950206,0,0,0.35950206,243.75034,535.41382)"
       id="g6169">
      <g
         style="font-style:normal;font-variant:normal;font-weight:normal;font-stretch:normal;letter-spacing:normal;word-spacing:normal;text-anchor:start;fill:none;stroke:#000000;stroke-width:2.78162527;stroke-linecap:butt;stroke-linejoin:miter;stroke-miterlimit:10.43299961;stroke-opacity:1;stroke-dasharray:none;stroke-dashoffset:0"
         word-spacing="normal"
         letter-spacing="normal"
         font-size-adjust="none"
         font-stretch="normal"
         font-weight="normal"
         font-variant="normal"
         font-style="normal"
         stroke-miterlimit="10.433"
         xml:space="preserve"
         transform="matrix(1.0629921,0,0,-1.0629921,-186.02362,789.27165)"
         id="g6171"><path
           style="fill:#000000;stroke-width:0"
           inkscape:connector-curvature="0"
           id="path6173"
           d="m 461.85,410.04 5.28,5.13 c 7.76,6.87 10.76,9.56 10.76,14.54 0,5.69 -4.48,9.68 -10.56,9.68 -5.64,0 -9.33,-4.6 -9.33,-9.03 0,-2.79 2.5,-2.79 2.64,-2.79 0.86,0 2.6,0.6 2.6,2.64 0,1.3 -0.89,2.6 -2.64,2.6 -0.39,0 -0.5,0 -0.64,-0.05 1.14,3.24 3.83,5.08 6.72,5.08 4.53,0 6.68,-4.05 6.68,-8.13 0,-3.98 -2.5,-7.92 -5.23,-11.01 l -9.56,-10.66 C 458,407.5 458,407.4 458,406.2 h 18.49 l 1.4,8.67 h -1.25 c -0.25,-1.5 -0.59,-3.69 -1.09,-4.44 -0.36,-0.39 -3.64,-0.39 -4.73,-0.39 z" /><path
           style="fill:#000000;stroke-width:0"
           inkscape:connector-curvature="0"
           id="path6175"
           d="m 503.15,431.11 0,0.31 -0.01,0.34 -0.02,0.36 -0.02,0.37 -0.03,0.39 -0.04,0.39 -0.05,0.41 -0.05,0.41 -0.07,0.42 -0.08,0.43 -0.09,0.42 -0.1,0.43 -0.11,0.42 -0.13,0.42 -0.14,0.41 -0.15,0.41 -0.17,0.4 -0.18,0.38 -0.2,0.37 -0.22,0.36 -0.24,0.34 -0.25,0.32 -0.27,0.3 -0.29,0.27 -0.31,0.25 -0.16,0.12 -0.17,0.1 -0.17,0.1 -0.18,0.1 -0.18,0.08 -0.19,0.08 -0.2,0.07 -0.2,0.06 -0.2,0.05 -0.21,0.05 -0.22,0.03 -0.22,0.02 -0.23,0.02 -0.24,0 -0.04,-1.09 c 2.43,0 2.73,-3.19 2.73,-6.03 0,-2.44 -0.39,-4.99 -1.59,-9.92 h -10.41 c 0.85,3.2 1.85,7.18 3.83,10.72 1.36,2.43 3.19,5.23 5.44,5.23 l 0.04,1.09 c -6.92,0 -14.59,-14.04 -14.59,-25.45 0,-4.69 1.44,-10.22 5.98,-10.22 v 1.1 c -1.65,0 -2.7,1.45 -2.7,6.07 0,2.1 0.3,4.99 1.6,9.86 h 10.37 c -0.55,-2.28 -1.59,-6.51 -3.5,-10.11 -1.73,-3.39 -3.62,-5.82 -5.77,-5.82 v -1.1 c 7.02,0 14.6,14.3 14.6,25.46 z" /></g>    </g>
    <g
       transform="matrix(0.43161134,0,0,0.43161134,194.01025,478.7844)"
       id="g6225">
      <g
         style="font-style:normal;font-variant:normal;font-weight:normal;font-stretch:normal;letter-spacing:normal;word-spacing:normal;text-anchor:start;fill:none;stroke:#000000;stroke-width:2.31689906;stroke-linecap:butt;stroke-linejoin:miter;stroke-miterlimit:10.43299961;stroke-opacity:1;stroke-dasharray:none;stroke-dashoffset:0"
         id="g6227"
         transform="matrix(1.0629921,0,0,-1.0629921,-186.02362,789.27165)"
         xml:space="preserve"
         stroke-miterlimit="10.433"
         font-style="normal"
         font-variant="normal"
         font-weight="normal"
         font-stretch="normal"
         font-size-adjust="none"
         letter-spacing="normal"
         word-spacing="normal"><path
           style="fill:#000000;stroke-width:0"
           inkscape:connector-curvature="0"
           d="m 462.14,410.34 0.25,0.27 0.24,0.25 0.24,0.25 0.23,0.24 0.22,0.23 0.22,0.22 0.21,0.22 0.2,0.21 0.2,0.2 0.2,0.19 0.19,0.19 0.19,0.19 0.18,0.17 0.19,0.18 0.35,0.33 0.34,0.32 0.33,0.3 0.33,0.29 0.32,0.29 0.65,0.56 0.33,0.29 0.33,0.28 c 0,0.05 3.08,2.69 4.88,4.49 4.73,4.64 5.83,7.03 5.83,7.21 0,0.5 -0.46,0.5 -0.55,0.5 -0.35,0 -0.5,-0.09 -0.75,-0.54 -1.49,-2.39 -2.53,-3.19 -3.74,-3.19 -1.2,0 -1.79,0.75 -2.54,1.59 -0.94,1.16 -1.78,2.14 -3.44,2.14 -3.73,0 -6.02,-4.62 -6.02,-5.67 0,-0.25 0.14,-0.54 0.6,-0.54 0.45,0 0.54,0.25 0.64,0.54 0.95,2.3 3.84,2.35 4.23,2.35 1.05,0 2,-0.36 3.14,-0.75 2,-0.75 2.55,-0.75 3.85,-0.75 -1.8,-2.14 -5.99,-5.74 -6.92,-6.53 l -4.49,-4.18 c -3.39,-3.34 -5.14,-6.18 -5.14,-6.53 0,-0.5 0.5,-0.5 0.59,-0.5 0.41,0 0.5,0.1 0.8,0.64 1.16,1.75 2.64,3.1 4.24,3.1 1.15,0 1.65,-0.46 2.89,-1.89 0.86,-1.05 1.75,-1.85 3.18,-1.85 4.94,0 7.83,6.33 7.83,7.67 0,0.25 -0.2,0.5 -0.59,0.5 -0.46,0 -0.55,-0.29 -0.71,-0.65 -1.14,-3.24 -4.32,-4.17 -5.98,-4.17 -0.98,0 -1.89,0.29 -2.94,0.64 -1.68,0.64 -2.43,0.84 -3.48,0.84 -0.1,0 -0.89,0 -1.35,-0.14 z"
           id="path6229" /></g>    </g>
    <path
       style="fill:none;stroke:#000000;stroke-width:1;stroke-linecap:butt;stroke-linejoin:miter;stroke-miterlimit:4;stroke-opacity:1;stroke-dasharray:2, 2;stroke-dashoffset:0;marker-mid:none;marker-end:none"
       d="m 338.21541,660.0962 c 88.45627,52.25084 88.45627,52.25084 88.45627,52.25084"
       id="path5159-9"
       inkscape:connector-curvature="0" />
    <path
       inkscape:connector-curvature="0"
       id="path6663"
       d="m 346.42857,651.11218 c 3.68255,7.20779 0.30688,13.21429 0.30688,13.21429"
       style="fill:none;stroke:#000000;stroke-width:1px;stroke-linecap:butt;stroke-linejoin:miter;stroke-opacity:1" />
    <path
       inkscape:transform-center-y="21.071429"
       inkscape:transform-center-x="-32.142857"
       inkscape:connector-curvature="0"
       id="path6663-4"
       d="m 221.26358,606.3317 c -0.81915,-8.05248 4.50433,-12.4267 4.50433,-12.4267"
       style="fill:none;stroke:#000000;stroke-width:1px;stroke-linecap:butt;stroke-linejoin:miter;stroke-opacity:1" />
    <path
       style="fill:none;stroke:#000000;stroke-width:1;stroke-linecap:butt;stroke-linejoin:miter;stroke-miterlimit:4;stroke-opacity:1;stroke-dasharray:2, 2;stroke-dashoffset:0;marker-mid:none;marker-end:none"
       d="m 336.96344,607.61856 c 0.002,49.84444 0.002,49.84444 0.002,49.84444"
       id="path5159-9-2"
       inkscape:connector-curvature="0" />
    <path
       inkscape:connector-curvature="0"
       id="path6701"
       d="m 342.00892,607.36215 c 0,5.18839 0,5.18839 0,5.18839 l -4.86607,0"
       style="fill:none;stroke:#000000;stroke-width:0.99999988px;stroke-linecap:butt;stroke-linejoin:miter;stroke-opacity:1" />
    <g
       transform="matrix(0.41109394,0,0,0.41109394,48.532693,394.37389)"
       id="g6926">
      <g
         style="font-style:normal;font-variant:normal;font-weight:normal;font-stretch:normal;letter-spacing:normal;word-spacing:normal;text-anchor:start;fill:none;stroke:#000000;stroke-width:2.43253398;stroke-linecap:butt;stroke-linejoin:miter;stroke-miterlimit:10.43299961;stroke-opacity:1;stroke-dasharray:none;stroke-dashoffset:0"
         word-spacing="normal"
         letter-spacing="normal"
         font-size-adjust="none"
         font-stretch="normal"
         font-weight="normal"
         font-variant="normal"
         font-style="normal"
         stroke-miterlimit="10.433"
         xml:space="preserve"
         transform="matrix(1.0629921,0,0,-1.0629921,-186.02362,789.27165)"
         id="g6928"><path
           style="fill:#000000;stroke-width:0"
           inkscape:connector-curvature="0"
           id="path6930"
           d="m 472.11,409.98 0.03,-0.19 0.02,-0.18 0.04,-0.19 0.04,-0.18 0.05,-0.19 0.06,-0.18 0.06,-0.18 0.07,-0.18 0.07,-0.18 0.08,-0.17 0.09,-0.18 0.1,-0.16 0.1,-0.16 0.1,-0.16 0.12,-0.16 0.12,-0.14 0.12,-0.14 0.13,-0.14 0.14,-0.13 0.15,-0.12 0.15,-0.12 0.15,-0.1 0.17,-0.1 0.17,-0.09 0.17,-0.08 0.18,-0.07 0.19,-0.06 0.19,-0.05 0.2,-0.04 0.21,-0.03 0.21,-0.02 0.21,-0.01 c 1.04,0 4.08,0.71 4.08,4.74 v 2.78 h -1.25 v -2.78 c 0,-2.89 -1.23,-3.19 -1.79,-3.19 -1.65,0 -1.85,2.23 -1.85,2.48 v 9.97 c 0,2.1 0,4.03 -1.78,5.88 -1.95,1.93 -4.44,2.73 -6.83,2.73 -4.09,0 -7.53,-2.33 -7.53,-5.62 0,-1.49 1,-2.35 2.3,-2.35 1.39,0 2.29,1 2.29,2.3 0,0.59 -0.25,2.23 -2.54,2.3 1.34,1.73 3.78,2.28 5.37,2.28 2.46,0 5.28,-1.94 5.28,-6.38 v -1.84 -1.05 -4.98 c 0,-4.74 -3.57,-6.42 -5.82,-6.42 -2.44,0 -4.49,1.75 -4.49,4.23 0,2.73 2.1,6.88 10.31,7.17 h 0 v 1.05 c -2.53,-0.14 -6.01,-0.3 -9.15,-1.8 -3.74,-1.69 -4.99,-4.28 -4.99,-6.47 0,-4.03 4.83,-5.28 7.97,-5.28 3.3,0 5.58,1.99 6.53,4.33 z" /><path
           style="fill:#000000;stroke-width:0"
           inkscape:connector-curvature="0"
           id="path6932"
           d="m 489.29,428.21 -6.97,-0.54 v -1.55 c 3.23,0 3.69,-0.3 3.69,-2.73 v -13.41 c 0,-2.23 -0.55,-2.23 -3.89,-2.23 v -1.55 c 1.59,0.05 4.28,0.16 5.48,0.16 1.75,0 3.49,-0.11 5.19,-0.16 v 1.55 c -3.3,0 -3.5,0.25 -3.5,2.18 z" /><path
           style="fill:#000000;stroke-width:0"
           inkscape:connector-curvature="0"
           id="path6934"
           d="m 489.49,436.89 0,0.14 -0.01,0.15 -0.02,0.14 -0.02,0.14 -0.04,0.13 -0.03,0.13 -0.05,0.13 -0.05,0.12 -0.05,0.12 -0.06,0.12 -0.07,0.11 -0.07,0.1 -0.07,0.1 -0.08,0.1 -0.09,0.1 -0.09,0.08 -0.09,0.09 -0.1,0.08 -0.1,0.07 -0.1,0.07 -0.11,0.07 -0.11,0.06 -0.11,0.05 -0.12,0.05 -0.12,0.04 -0.12,0.04 -0.12,0.03 -0.13,0.03 -0.12,0.02 -0.13,0.01 -0.13,0.01 -0.13,0.01 c -1.55,0 -2.64,-1.35 -2.64,-2.64 0,-1.35 1.09,-2.64 2.64,-2.64 1.39,0 2.64,1.04 2.64,2.64 z" /><path
           style="fill:#000000;stroke-width:0"
           inkscape:connector-curvature="0"
           id="path6936"
           d="m 502.59,422.75 v 5.46 l -6.93,-0.54 v -1.55 c 3.49,0 3.89,-0.34 3.89,-2.78 v -13.36 c 0,-2.23 -0.54,-2.23 -3.89,-2.23 v -1.55 c 1.96,0.05 4.29,0.16 5.69,0.16 1.99,0 4.33,0 6.33,-0.16 v 1.55 h -1.05 c -3.68,0 -3.79,0.54 -3.79,2.34 v 7.67 c 0,4.92 2.09,9.36 5.89,9.36 0.34,0 0.43,0 0.54,-0.05 -0.15,-0.04 -1.15,-0.64 -1.15,-1.93 0,-1.41 1.04,-2.14 2.15,-2.14 0.89,0 2.14,0.59 2.14,2.18 0,1.6 -1.54,3.03 -3.68,3.03 -3.64,0 -5.44,-3.32 -6.14,-5.46 z" /></g>    </g>
    <g
       transform="matrix(0.3975656,0,0,0.3975656,57.679851,593.62981)"
       id="g7018">
      <g
         style="font-style:normal;font-variant:normal;font-weight:normal;font-stretch:normal;letter-spacing:normal;word-spacing:normal;text-anchor:start;fill:none;stroke:#000000;stroke-width:2.51530814;stroke-linecap:butt;stroke-linejoin:miter;stroke-miterlimit:10.43299961;stroke-opacity:1;stroke-dasharray:none;stroke-dashoffset:0"
         id="g7020"
         transform="matrix(1.0629921,0,0,-1.0629921,-186.02362,789.27165)"
         xml:space="preserve"
         stroke-miterlimit="10.433"
         font-style="normal"
         font-variant="normal"
         font-weight="normal"
         font-stretch="normal"
         font-size-adjust="none"
         letter-spacing="normal"
         word-spacing="normal"><path
           style="fill:#000000;stroke-width:0"
           inkscape:connector-curvature="0"
           d="m 465.88,415.87 0.11,-0.02 0.13,-0.02 0.14,-0.03 0.16,-0.04 0.16,-0.04 0.18,-0.04 0.19,-0.05 0.2,-0.06 0.21,-0.06 0.21,-0.07 0.21,-0.08 0.22,-0.08 0.22,-0.1 0.22,-0.1 0.22,-0.11 0.22,-0.12 0.22,-0.14 0.21,-0.14 0.2,-0.15 0.2,-0.16 0.19,-0.18 0.18,-0.19 0.17,-0.2 0.16,-0.21 0.14,-0.22 0.07,-0.12 0.06,-0.12 0.06,-0.13 0.05,-0.12 0.05,-0.14 0.05,-0.13 0.04,-0.14 0.03,-0.14 0.03,-0.15 0.03,-0.15 0.02,-0.16 0.01,-0.15 0.01,-0.17 0.01,-0.16 c 0,-2.53 -1.75,-4.53 -5.63,-4.53 -4.19,0 -5.98,2.84 -6.94,7.07 -0.14,0.64 -0.18,0.85 -0.68,0.85 -0.66,0 -0.66,-0.35 -0.66,-1.25 v -6.58 c 0,-0.84 0,-1.19 0.55,-1.19 0.25,0 0.29,0.05 1.25,1 0.09,0.1 0.09,0.19 1,1.14 2.18,-2.09 4.43,-2.14 5.48,-2.14 5.72,0 8.02,3.35 8.02,6.92 0,2.64 -1.5,4.14 -2.1,4.74 -1.64,1.59 -3.59,2 -5.68,2.39 -2.79,0.55 -6.13,1.2 -6.13,4.09 0,1.74 1.3,3.78 5.58,3.78 5.48,0 5.73,-4.48 5.83,-6.03 0.06,-0.45 0.5,-0.45 0.61,-0.45 0.64,0 0.64,0.25 0.64,1.2 v 5.03 c 0,0.85 0,1.19 -0.55,1.19 -0.25,0 -0.34,0 -1,-0.59 -0.14,-0.21 -0.64,-0.64 -0.84,-0.8 -1.89,1.39 -3.94,1.39 -4.69,1.39 -6.08,0 -7.97,-3.33 -7.97,-6.12 0,-1.74 0.8,-3.14 2.14,-4.24 1.59,-1.29 3,-1.59 6.58,-2.28 z"
           id="path7022" /><path
           style="fill:#000000;stroke-width:0"
           inkscape:connector-curvature="0"
           d="m 491.79,409.98 0.03,-0.19 0.02,-0.18 0.04,-0.19 0.04,-0.18 0.05,-0.19 0.06,-0.18 0.06,-0.18 0.07,-0.18 0.07,-0.18 0.08,-0.17 0.09,-0.18 0.1,-0.16 0.1,-0.16 0.1,-0.16 0.12,-0.16 0.12,-0.14 0.12,-0.14 0.13,-0.14 0.14,-0.13 0.15,-0.12 0.15,-0.12 0.15,-0.1 0.17,-0.1 0.17,-0.09 0.17,-0.08 0.18,-0.07 0.19,-0.06 0.19,-0.05 0.2,-0.04 0.21,-0.03 0.21,-0.02 0.21,-0.01 c 1.03,0 4.08,0.71 4.08,4.74 v 2.78 h -1.25 v -2.78 c 0,-2.89 -1.23,-3.19 -1.8,-3.19 -1.64,0 -1.84,2.23 -1.84,2.48 v 9.97 c 0,2.1 0,4.03 -1.78,5.88 -1.95,1.93 -4.44,2.73 -6.83,2.73 -4.09,0 -7.53,-2.33 -7.53,-5.62 0,-1.49 1,-2.35 2.3,-2.35 1.39,0 2.29,1 2.29,2.3 0,0.59 -0.25,2.23 -2.54,2.3 1.34,1.73 3.78,2.28 5.37,2.28 2.46,0 5.28,-1.94 5.28,-6.38 v -1.84 -1.05 -4.98 c 0,-4.74 -3.57,-6.42 -5.82,-6.42 -2.44,0 -4.49,1.75 -4.49,4.23 0,2.73 2.09,6.88 10.31,7.17 h 0 v 1.05 c -2.53,-0.14 -6.01,-0.3 -9.15,-1.8 -3.74,-1.69 -4.99,-4.28 -4.99,-6.47 0,-4.03 4.83,-5.28 7.97,-5.28 3.3,0 5.58,1.99 6.53,4.33 z"
           id="path7024" /><path
           style="fill:#000000;stroke-width:0"
           inkscape:connector-curvature="0"
           d="m 505.64,423.34 v -13.36 c 0,-2.23 -0.55,-2.23 -3.89,-2.23 v -1.55 c 1.75,0.05 4.28,0.16 5.63,0.16 1.29,0 3.89,-0.11 5.57,-0.16 v 1.55 c -3.33,0 -3.87,0 -3.87,2.23 v 9.17 c 0,5.19 3.53,7.97 6.72,7.97 3.14,0 3.68,-2.69 3.68,-5.53 v -11.61 c 0,-2.23 -0.54,-2.23 -3.89,-2.23 v -1.55 c 1.75,0.05 4.3,0.16 5.64,0.16 1.3,0 3.88,-0.11 5.58,-0.16 v 1.55 c -3.34,0 -3.89,0 -3.89,2.23 v 9.17 c 0,5.19 3.55,7.97 6.74,7.97 3.14,0 3.68,-2.69 3.68,-5.53 v -11.61 c 0,-2.23 -0.54,-2.23 -3.89,-2.23 v -1.55 c 1.74,0.05 4.28,0.16 5.63,0.16 1.3,0 3.89,-0.11 5.58,-0.16 v 1.55 c -2.58,0 -3.83,0 -3.88,1.5 v 9.51 c 0,4.28 0,5.83 -1.55,7.61 -0.7,0.86 -2.34,1.84 -5.23,1.84 -4.19,0 -6.38,-2.98 -7.22,-4.87 -0.7,4.33 -4.39,4.87 -6.62,4.87 -3.64,0 -5.99,-2.14 -7.38,-5.21 v 5.21 l -7.03,-0.54 v -1.55 c 3.48,0 3.89,-0.34 3.89,-2.78 z"
           id="path7026" /><path
           style="fill:#000000;stroke-width:0"
           inkscape:connector-curvature="0"
           d="m 550.24,424.93 v 3.28 l -7.17,-0.54 v -1.55 c 3.54,0 3.89,-0.3 3.89,-2.48 v -23.32 c 0,-2.25 -0.55,-2.25 -3.89,-2.25 v -1.54 c 1.7,0.06 4.28,0.15 5.58,0.15 1.34,0 3.88,-0.09 5.63,-0.15 v 1.54 c -3.34,0 -3.88,0 -3.88,2.25 v 8.36 0.46 l 0.7,0.65 c -0.7,1.05 -0.7,1.1 -0.7,2.08 h 0 V 423 c 1.43,2.53 3.88,3.98 6.42,3.98 3.64,0 6.68,-4.39 6.68,-10.02 0,-6.03 -3.5,-10.21 -7.18,-10.21 -1.99,0 -3.88,1 -5.22,3.04 l -0.7,-0.65 c 0.25,-0.8 2.34,-3.49 6.12,-3.49 5.94,0 11.11,4.88 11.11,11.31 0,6.33 -4.83,11.25 -10.41,11.25 -3.89,0 -5.98,-2.18 -6.98,-3.28 z"
           id="path7028" /><path
           style="fill:#000000;stroke-width:0"
           inkscape:connector-curvature="0"
           d="m 578.21,440.78 -7.18,-0.55 v -1.55 c 3.49,0 3.9,-0.34 3.9,-2.79 v -25.91 c 0,-2.23 -0.55,-2.23 -3.9,-2.23 v -1.55 c 1.65,0.05 4.29,0.16 5.54,0.16 1.25,0 3.68,-0.11 5.53,-0.16 v 1.55 c -3.35,0 -3.89,0 -3.89,2.23 z"
           id="path7030" /><path
           style="fill:#000000;stroke-width:0"
           inkscape:connector-curvature="0"
           d="m 588.72,417.71 0.05,1.05 c 0.3,7.42 4.48,8.66 6.19,8.66 5.12,0 5.62,-6.72 5.62,-8.66 h -11.81 l -0.05,-1.05 h 13.91 c 1.09,0 1.23,0 1.23,1.05 0,4.92 -2.68,9.75 -8.9,9.75 -5.78,0 -10.38,-5.12 -10.38,-11.36 0,-6.67 5.24,-11.5 10.97,-11.5 6.08,0 8.31,5.53 8.31,6.47 0,0.5 -0.39,0.61 -0.64,0.61 -0.45,0 -0.54,-0.3 -0.65,-0.7 -1.74,-5.13 -6.22,-5.13 -6.72,-5.13 -2.5,0 -4.49,1.49 -5.63,3.33 -1.5,2.39 -1.5,5.69 -1.5,7.48 z"
           id="path7032" /></g>    </g>
    <path
       inkscape:connector-curvature="0"
       id="path8557"
       d="m 494.53902,609.35509 c 0,157.89241 0,158.5895 0,158.5895"
       style="fill:none;stroke:#000000;stroke-width:1px;stroke-linecap:butt;stroke-linejoin:miter;stroke-opacity:1;marker-start:url(#Arrow1Mstart);marker-end:url(#Arrow1Mend-1)" />
    <g
       id="g9381"
       transform="translate(401.91201,587.81509)">
      <g
         word-spacing="normal"
         letter-spacing="normal"
         font-size-adjust="none"
         font-stretch="normal"
         font-weight="normal"
         font-variant="normal"
         font-style="normal"
         stroke-miterlimit="10.433"
         xml:space="preserve"
         transform="matrix(0.34605587,0,0,-0.34605587,-60.559778,240.14855)"
         id="g9383"
         style="font-style:normal;font-variant:normal;font-weight:normal;font-stretch:normal;letter-spacing:normal;word-spacing:normal;text-anchor:start;fill:none;stroke:#000000;stroke-linecap:butt;stroke-linejoin:miter;stroke-miterlimit:10.43299961;stroke-opacity:1;stroke-dasharray:none;stroke-dashoffset:0"><path
           id="path9385"
           d="m 465.79,426.12 h 4.68 c 0.99,0 1.49,0 1.49,1 0,0.55 -0.5,0.55 -1.39,0.55 h -4.39 c 1.79,7.08 2.04,8.08 2.04,8.37 0,0.85 -0.59,1.35 -1.43,1.35 -0.16,0 -1.55,-0.05 -2,-1.8 l -1.94,-7.92 h -4.69 c -1,0 -1.5,0 -1.5,-0.94 0,-0.61 0.41,-0.61 1.41,-0.61 h 4.37 c -3.58,-14.14 -3.78,-14.98 -3.78,-15.89 0,-2.69 1.89,-4.58 4.58,-4.58 5.08,0 7.92,7.27 7.92,7.67 0,0.5 -0.39,0.5 -0.59,0.5 -0.46,0 -0.5,-0.15 -0.75,-0.7 -2.14,-5.17 -4.78,-6.37 -6.47,-6.37 -1.05,0 -1.55,0.65 -1.55,2.29 0,1.19 0.09,1.55 0.3,2.39 z"
           inkscape:connector-curvature="0"
           style="fill:#000000;stroke-width:0" /></g>    </g>
  </g>
</svg>
