<?xml version="1.0" encoding="UTF-8" standalone="no"?>
<!-- Created with Inkscape (http://www.inkscape.org/) -->

<svg
   xmlns:dc="http://purl.org/dc/elements/1.1/"
   xmlns:cc="http://creativecommons.org/ns#"
   xmlns:rdf="http://www.w3.org/1999/02/22-rdf-syntax-ns#"
   xmlns:svg="http://www.w3.org/2000/svg"
   xmlns="http://www.w3.org/2000/svg"
   xmlns:sodipodi="http://sodipodi.sourceforge.net/DTD/sodipodi-0.dtd"
   xmlns:inkscape="http://www.inkscape.org/namespaces/inkscape"
   width="168.72304"
   height="43.7048"
   id="svg3896"
   version="1.1"
   inkscape:version="0.48.4 r9939"
   sodipodi:docname="New document 2">
  <defs
     id="defs3898" />
  <sodipodi:namedview
     id="base"
     pagecolor="#ffffff"
     bordercolor="#666666"
     borderopacity="1.0"
     inkscape:pageopacity="0.0"
     inkscape:pageshadow="2"
     inkscape:zoom="0.98994949"
     inkscape:cx="132.41099"
     inkscape:cy="-33.674648"
     inkscape:document-units="px"
     inkscape:current-layer="layer1"
     showgrid="false"
     fit-margin-top="0"
     fit-margin-left="0"
     fit-margin-right="0"
     fit-margin-bottom="0"
     inkscape:window-width="1280"
     inkscape:window-height="744"
     inkscape:window-x="-4"
     inkscape:window-y="896"
     inkscape:window-maximized="1" />
  <metadata
     id="metadata3901">
    <rdf:RDF>
      <cc:Work
         rdf:about="">
        <dc:format>image/svg+xml</dc:format>
        <dc:type
           rdf:resource="http://purl.org/dc/dcmitype/StillImage" />
        <dc:title></dc:title>
      </cc:Work>
    </rdf:RDF>
  </metadata>
  <g
     inkscape:label="Layer 1"
     inkscape:groupmode="layer"
     id="layer1"
     transform="translate(-455.63849,-599.08122)">
    <g
       id="g5425-3-1"
       transform="matrix(-0.29159731,0.10692946,0.13691514,0.04575117,560.15369,492.33284)">
      <path
         transform="matrix(2.013691,0,0,-1.2523735,1163.4005,1628.3982)"
         d="m -284.78088,117.99498 c 0,23.36733 -12.0215,42.3103 -26.85077,42.3103 -14.82927,0 -26.85077,-18.94297 -26.85077,-42.3103 0,-23.367335 12.0215,-42.310303 26.85077,-42.310303 14.82927,0 26.85077,18.942968 26.85077,42.310303 z"
         sodipodi:ry="42.310303"
         sodipodi:rx="26.850769"
         sodipodi:cy="117.99498"
         sodipodi:cx="-311.63165"
         id="path4635-5-6"
         style="fill:#00ff00;fill-opacity:1;stroke:none"
         sodipodi:type="arc" />
      <path
         inkscape:connector-curvature="0"
         id="path4637-7-2"
         d="m 567.00898,1449.2642 c 17.94569,-28.1162 17.94569,-28.1162 17.94569,-28.1162 l 21.36391,25.9534 14.52746,-21.6278 15.38202,23.7906 11.96379,-21.6279 14.52745,21.6279 15.38202,-25.9534 14.52747,23.7906 18.80024,-25.9534 14.52746,28.1162 16.23656,-25.9534"
         style="fill:none;stroke:#00ff00;stroke-width:11.95630455;stroke-linecap:butt;stroke-linejoin:miter;stroke-miterlimit:4;stroke-opacity:1;stroke-dasharray:none" />
      <path
         inkscape:connector-curvature="0"
         id="path4637-8-5-1"
         d="m 563.98957,1505.6587 c 18.61034,-28.1163 18.61034,-28.1163 18.61034,-28.1163 l 22.15517,25.9535 15.06551,-21.6279 15.95173,23.7907 12.40689,-21.6279 15.06551,21.6279 15.95173,-25.9535 15.06551,23.7907 19.49655,-25.9535 15.0655,28.1163 16.83793,-25.9535"
         style="fill:none;stroke:#00ff00;stroke-width:11.95630455;stroke-linecap:butt;stroke-linejoin:miter;stroke-miterlimit:4;stroke-opacity:1;stroke-dasharray:none" />
    </g>
    <g
       id="g5425-3-1-0"
       transform="matrix(-0.29307496,0.10692946,0.13760895,0.04575117,559.93148,480.74297)">
      <path
         transform="matrix(2.013691,0,0,-1.2523735,1160.8247,1624.9868)"
         d="m -284.78088,117.99498 c 0,23.36733 -12.0215,42.3103 -26.85077,42.3103 -14.82927,0 -26.85077,-18.94297 -26.85077,-42.3103 0,-23.367335 12.0215,-42.310303 26.85077,-42.310303 14.82927,0 26.85077,18.942968 26.85077,42.310303 z"
         sodipodi:ry="42.310303"
         sodipodi:rx="26.850769"
         sodipodi:cy="117.99498"
         sodipodi:cx="-311.63165"
         id="path4635-5-6-1"
         style="fill:#00ff00;fill-opacity:1;stroke:none"
         sodipodi:type="arc" />
      <path
         inkscape:connector-curvature="0"
         id="path4637-7-2-8"
         d="m 567.00898,1449.2642 c 17.94569,-28.1162 17.94569,-28.1162 17.94569,-28.1162 l 21.36391,25.9534 14.52746,-21.6278 15.38202,23.7906 11.96379,-21.6279 14.52745,21.6279 15.38202,-25.9534 14.52747,23.7906 18.80024,-25.9534 14.52746,28.1162 16.23656,-25.9534"
         style="fill:none;stroke:#00ff00;stroke-width:11.92612553;stroke-linecap:butt;stroke-linejoin:miter;stroke-miterlimit:4;stroke-opacity:1;stroke-dasharray:none" />
      <path
         inkscape:connector-curvature="0"
         id="path4637-8-5-1-6"
         d="m 563.98957,1505.6587 c 18.61034,-28.1163 18.61034,-28.1163 18.61034,-28.1163 l 22.15517,25.9535 15.06551,-21.6279 15.95173,23.7907 12.40689,-21.6279 15.06551,21.6279 15.95173,-25.9535 15.06551,23.7907 19.49655,-25.9535 15.0655,28.1163 16.83793,-25.9535"
         style="fill:none;stroke:#00ff00;stroke-width:11.92612553;stroke-linecap:butt;stroke-linejoin:miter;stroke-miterlimit:4;stroke-opacity:1;stroke-dasharray:none" />
    </g>
    <g
       id="g5425-3-1-3"
       transform="matrix(0.29159731,-0.10692946,-0.13691514,-0.04575117,519.6738,749.56286)">
      <path
         transform="matrix(2.013691,0,0,-1.2523735,1164.3395,1629.3475)"
         d="m -284.78088,117.99498 c 0,23.36733 -12.0215,42.3103 -26.85077,42.3103 -14.82927,0 -26.85077,-18.94297 -26.85077,-42.3103 0,-23.367335 12.0215,-42.310303 26.85077,-42.310303 14.82927,0 26.85077,18.942968 26.85077,42.310303 z"
         sodipodi:ry="42.310303"
         sodipodi:rx="26.850769"
         sodipodi:cy="117.99498"
         sodipodi:cx="-311.63165"
         id="path4635-5-6-9"
         style="fill:#00ff00;fill-opacity:1;stroke:none"
         sodipodi:type="arc" />
      <path
         inkscape:connector-curvature="0"
         id="path4637-7-2-3"
         d="m 567.00898,1449.2642 c 17.94569,-28.1162 17.94569,-28.1162 17.94569,-28.1162 l 21.36391,25.9534 14.52746,-21.6278 15.38202,23.7906 11.96379,-21.6279 14.52745,21.6279 15.38202,-25.9534 14.52747,23.7906 18.80024,-25.9534 14.52746,28.1162 16.23656,-25.9534"
         style="fill:none;stroke:#00ff00;stroke-width:11.95630455;stroke-linecap:butt;stroke-linejoin:miter;stroke-miterlimit:4;stroke-opacity:1;stroke-dasharray:none" />
      <path
         inkscape:connector-curvature="0"
         id="path4637-8-5-1-0"
         d="m 563.98957,1505.6587 c 18.61034,-28.1163 18.61034,-28.1163 18.61034,-28.1163 l 22.15517,25.9535 15.06551,-21.6279 15.95173,23.7907 12.40689,-21.6279 15.06551,21.6279 15.95173,-25.9535 15.06551,23.7907 19.49655,-25.9535 15.0655,28.1163 16.83793,-25.9535"
         style="fill:none;stroke:#00ff00;stroke-width:11.95630455;stroke-linecap:butt;stroke-linejoin:miter;stroke-miterlimit:4;stroke-opacity:1;stroke-dasharray:none" />
    </g>
    <g
       id="g5425-3-1-3-4"
       transform="matrix(0.29159731,-0.10692946,-0.13691514,-0.04575117,519.02816,761.82974)">
      <path
         transform="matrix(2.013691,0,0,-1.2523735,1165.4466,1629.6044)"
         d="m -284.78088,117.99498 c 0,23.36733 -12.0215,42.3103 -26.85077,42.3103 -14.82927,0 -26.85077,-18.94297 -26.85077,-42.3103 0,-23.367335 12.0215,-42.310303 26.85077,-42.310303 14.82927,0 26.85077,18.942968 26.85077,42.310303 z"
         sodipodi:ry="42.310303"
         sodipodi:rx="26.850769"
         sodipodi:cy="117.99498"
         sodipodi:cx="-311.63165"
         id="path4635-5-6-9-6"
         style="fill:#00ff00;fill-opacity:1;stroke:none"
         sodipodi:type="arc" />
      <path
         inkscape:connector-curvature="0"
         id="path4637-7-2-3-9"
         d="m 567.00898,1449.2642 c 17.94569,-28.1162 17.94569,-28.1162 17.94569,-28.1162 l 21.36391,25.9534 14.52746,-21.6278 15.38202,23.7906 11.96379,-21.6279 14.52745,21.6279 15.38202,-25.9534 14.52747,23.7906 18.80024,-25.9534 14.52746,28.1162 16.23656,-25.9534"
         style="fill:none;stroke:#00ff00;stroke-width:11.95630455;stroke-linecap:butt;stroke-linejoin:miter;stroke-miterlimit:4;stroke-opacity:1;stroke-dasharray:none" />
      <path
         inkscape:connector-curvature="0"
         id="path4637-8-5-1-0-6"
         d="m 563.98957,1505.6587 c 18.61034,-28.1163 18.61034,-28.1163 18.61034,-28.1163 l 22.15517,25.9535 15.06551,-21.6279 15.95173,23.7907 12.40689,-21.6279 15.06551,21.6279 15.95173,-25.9535 15.06551,23.7907 19.49655,-25.9535 15.0655,28.1163 16.83793,-25.9535"
         style="fill:none;stroke:#00ff00;stroke-width:11.95630455;stroke-linecap:butt;stroke-linejoin:miter;stroke-miterlimit:4;stroke-opacity:1;stroke-dasharray:none" />
    </g>
  </g>
</svg>
