<?xml version="1.0" encoding="UTF-8" standalone="no"?>
<!-- Created with Inkscape (http://www.inkscape.org/) -->

<svg
   xmlns:dc="http://purl.org/dc/elements/1.1/"
   xmlns:cc="http://creativecommons.org/ns#"
   xmlns:rdf="http://www.w3.org/1999/02/22-rdf-syntax-ns#"
   xmlns:svg="http://www.w3.org/2000/svg"
   xmlns="http://www.w3.org/2000/svg"
   xmlns:sodipodi="http://sodipodi.sourceforge.net/DTD/sodipodi-0.dtd"
   xmlns:inkscape="http://www.inkscape.org/namespaces/inkscape"
   width="306.54965"
   height="93.535988"
   id="svg2"
   version="1.1"
   inkscape:version="0.48.4 r9939"
   sodipodi:docname="New document 1">
  <defs
     id="defs4" />
  <sodipodi:namedview
     id="base"
     pagecolor="#ffffff"
     bordercolor="#666666"
     borderopacity="1.0"
     inkscape:pageopacity="0.0"
     inkscape:pageshadow="2"
     inkscape:zoom="1.979899"
     inkscape:cx="122.83905"
     inkscape:cy="112.55192"
     inkscape:document-units="px"
     inkscape:current-layer="g2995"
     showgrid="false"
     fit-margin-top="0"
     fit-margin-left="0"
     fit-margin-right="0"
     fit-margin-bottom="0"
     inkscape:window-width="1440"
     inkscape:window-height="874"
     inkscape:window-x="-4"
     inkscape:window-y="-4"
     inkscape:window-maximized="1" />
  <metadata
     id="metadata7">
    <rdf:RDF>
      <cc:Work
         rdf:about="">
        <dc:format>image/svg+xml</dc:format>
        <dc:type
           rdf:resource="http://purl.org/dc/dcmitype/StillImage" />
        <dc:title></dc:title>
      </cc:Work>
    </rdf:RDF>
  </metadata>
  <g
     inkscape:label="Layer 1"
     inkscape:groupmode="layer"
     id="layer1"
     transform="translate(-155.88391,-376.47539)">
    <g
       transform="matrix(1.25,0,0,-1.25,217.29324,522.88125)"
       inkscape:label="ripple_cartoon"
       id="g2993">
      <g
         id="g2995">
        <path
           id="path2997"
           style="fill:#ffffff;fill-opacity:1;fill-rule:nonzero;stroke:none"
           d="m 77.718877,79.739422 c 0,-4.414905 -5.78515,-7.990323 -12.926863,-7.990323 -7.134108,0 -12.920781,3.575418 -12.920781,7.990323 0,4.413383 5.786673,7.988804 12.920781,7.988804 7.141713,0 12.926863,-3.575421 12.926863,-7.988804 z"
           inkscape:connector-curvature="0" />
        <g
           transform="matrix(1.5208075,-1.7645625e-8,0,-1.5208075,-170.02979,131.61259)"
           id="g4719">
          <path
             id="path4721"
             style="fill:none;stroke:#000000;stroke-width:0.52603632;stroke-linecap:butt;stroke-linejoin:miter;stroke-miterlimit:4;stroke-opacity:1;stroke-dasharray:none"
             d="m 86.360969,36.782183 37.632001,20.309"
             inkscape:connector-curvature="0" />
        </g>
        <g
           transform="matrix(1.5208075,-1.7645625e-8,0,-1.5208075,-170.02979,131.61259)"
           id="g4723">
          <path
             id="path4725"
             style="fill:none;stroke:#000000;stroke-width:0.52603632;stroke-linecap:butt;stroke-linejoin:miter;stroke-miterlimit:4;stroke-opacity:1;stroke-dasharray:none"
             d="M 123.465,57.02 202.922,35.887"
             inkscape:connector-curvature="0" />
        </g>
        <g
           transform="matrix(1.5208075,-1.7645625e-8,0,-1.5208075,-170.02979,131.61259)"
           id="g4727">
          <path
             id="path4729"
             style="fill:none;stroke:#000000;stroke-width:0.52603632;stroke-linecap:butt;stroke-linejoin:miter;stroke-miterlimit:4;stroke-opacity:1;stroke-dasharray:none"
             d="m 202.859,35.941 37.633,20.305"
             inkscape:connector-curvature="0" />
        </g>
        <g
           transform="matrix(1.5208075,-1.7645625e-8,0,-1.5208075,-170.39815,131.32687)"
           id="g4743">
          <path
             id="path4745"
             style="fill:none;stroke:#000000;stroke-width:0.52603632;stroke-linecap:butt;stroke-linejoin:miter;stroke-miterlimit:4;stroke-opacity:1;stroke-dasharray:none"
             d="M 80.004,12.512 117.633,32.82"
             inkscape:connector-curvature="0" />
        </g>
        <g
           transform="matrix(1.5208075,-1.7645625e-8,0,-1.5208075,-170.02979,131.61259)"
           id="g4747">
          <path
             id="path4749"
             style="fill:none;stroke:#000000;stroke-width:0.52603632;stroke-linecap:butt;stroke-linejoin:miter;stroke-miterlimit:4;stroke-opacity:1;stroke-dasharray:none"
             d="M 117.18,33.02 196.637,11.887"
             inkscape:connector-curvature="0" />
        </g>
        <g
           transform="matrix(1.5208075,-1.7645625e-8,0,-1.5208075,-170.02979,131.61259)"
           id="g4751">
          <path
             id="path4753"
             style="fill:none;stroke:#000000;stroke-width:0.52603632;stroke-linecap:butt;stroke-linejoin:miter;stroke-miterlimit:4;stroke-opacity:1;stroke-dasharray:none"
             d="m 196.574,11.941 37.629,20.305"
             inkscape:connector-curvature="0" />
        </g>
        <path
           id="path5033"
           style="fill:#000000;fill-opacity:1;fill-rule:nonzero;stroke:none"
           d="m 43.864182,86.986066 c -0.707176,-3.409647 -2.781557,-5.114472 -4.623255,-3.802015 -1.840177,1.312456 -2.761787,5.138805 -2.054611,8.548455 0.707175,3.40965 2.780036,5.10992 4.621734,3.79594 1.847781,-1.30637 2.761786,-5.13881 2.056132,-8.54238 z"
           inkscape:connector-curvature="0" />
        <g
           transform="matrix(0.82250745,-0.58502119,-0.31640096,-1.5208075,-170.02979,131.61259)"
           id="g5035">
          <path
             id="path5037"
             style="fill:none;stroke:#000000;stroke-width:0.66759992;stroke-linecap:butt;stroke-linejoin:miter;stroke-miterlimit:4;stroke-opacity:1;stroke-dasharray:none"
             d="m 230.131,-59.038 -0.003,9.962"
             inkscape:connector-curvature="0" />
        </g>
        <g
           transform="matrix(0.82250745,-0.58502119,-0.31640096,-1.5208075,-170.02979,131.61259)"
           id="g5039">
          <path
             id="path5041"
             style="fill:none;stroke:#000000;stroke-width:0.66759992;stroke-linecap:butt;stroke-linejoin:miter;stroke-miterlimit:4;stroke-opacity:1;stroke-dasharray:none"
             d="m 234.24,-59.041 -0.003,9.962"
             inkscape:connector-curvature="0" />
        </g>
        <path
           id="path5043"
           style="fill:#000000;fill-opacity:1;fill-rule:nonzero;stroke:none"
           d="m 52.120646,90.080916 c -0.707176,-3.40965 -2.780037,-5.108396 -4.621734,-3.79594 -1.847782,1.31398 -2.761787,5.13881 -2.054611,8.54846 0.705654,3.40509 2.780036,5.10991 4.621734,3.79594 1.841698,-1.31246 2.761786,-5.13729 2.054611,-8.54846 z"
           inkscape:connector-curvature="0" />
        <g
           transform="matrix(0.82250745,-0.58502119,-0.31640096,-1.5208075,-170.02979,131.61259)"
           id="g5045">
          <path
             id="path5047"
             style="fill:none;stroke:#000000;stroke-width:0.66759992;stroke-linecap:butt;stroke-linejoin:miter;stroke-miterlimit:4;stroke-opacity:1;stroke-dasharray:none"
             d="m 238.193,-64.179 -0.003,9.963"
             inkscape:connector-curvature="0" />
        </g>
        <g
           transform="matrix(0.82250745,-0.58502119,-0.31640096,-1.5208075,-170.02979,131.61259)"
           id="g5049">
          <path
             id="path5051"
             style="fill:none;stroke:#000000;stroke-width:0.66759992;stroke-linecap:butt;stroke-linejoin:miter;stroke-miterlimit:4;stroke-opacity:1;stroke-dasharray:none"
             d="m 242.304,-64.178 -0.003,9.963"
             inkscape:connector-curvature="0" />
        </g>
        <path
           id="path5053"
           style="fill:#000000;fill-opacity:1;fill-rule:nonzero;stroke:none"
           d="m 60.81206,92.909616 c -0.713258,-3.40965 -2.780036,-5.116 -4.621734,-3.80202 -1.847781,1.31246 -2.761786,5.13881 -2.056131,8.54846 0.707175,3.409654 2.781557,5.108394 4.623254,3.795934 1.840178,-1.30637 2.761787,-5.138804 2.054611,-8.542374 z"
           inkscape:connector-curvature="0" />
        <g
           transform="matrix(0.82250745,-0.58502119,-0.31640096,-1.5208075,-170.02979,131.61259)"
           id="g5055">
          <path
             id="path5057"
             style="fill:none;stroke:#000000;stroke-width:0.66759992;stroke-linecap:butt;stroke-linejoin:miter;stroke-miterlimit:4;stroke-opacity:1;stroke-dasharray:none"
             d="m 246.776,-69.336 -0.003,9.962"
             inkscape:connector-curvature="0" />
        </g>
        <g
           transform="matrix(0.82250745,-0.58502119,-0.31640096,-1.5208075,-170.02979,131.61259)"
           id="g5059">
          <path
             id="path5061"
             style="fill:none;stroke:#000000;stroke-width:0.66759992;stroke-linecap:butt;stroke-linejoin:miter;stroke-miterlimit:4;stroke-opacity:1;stroke-dasharray:none"
             d="m 250.885,-69.338 -0.003,9.962"
             inkscape:connector-curvature="0" />
        </g>
        <path
           id="path5063"
           style="fill:#000000;fill-opacity:1;fill-rule:nonzero;stroke:none"
           d="m 70.151337,95.078286 c -0.70717,-3.41117 -2.77547,-5.10991 -4.62173,-3.79746 -1.8417,1.31398 -2.763309,5.13881 -2.056133,8.54998 0.713258,3.403574 2.780033,5.108404 4.627813,3.795944 1.8417,-1.31398 2.76179,-5.138814 2.05005,-8.548464 z"
           inkscape:connector-curvature="0" />
        <g
           transform="matrix(0.82250745,-0.58502119,-0.31640096,-1.5208075,-170.02979,131.61259)"
           id="g5065">
          <path
             id="path5067"
             style="fill:none;stroke:#000000;stroke-width:0.66759992;stroke-linecap:butt;stroke-linejoin:miter;stroke-miterlimit:4;stroke-opacity:1;stroke-dasharray:none"
             d="m 256.188,-74.386 0.003,9.96"
             inkscape:connector-curvature="0" />
        </g>
        <g
           transform="matrix(0.82250745,-0.58502119,-0.31640096,-1.5208075,-170.02979,131.61259)"
           id="g5069">
          <path
             id="path5071"
             style="fill:none;stroke:#000000;stroke-width:0.66759992;stroke-linecap:butt;stroke-linejoin:miter;stroke-miterlimit:4;stroke-opacity:1;stroke-dasharray:none"
             d="m 260.298,-74.385 0.003,9.96"
             inkscape:connector-curvature="0" />
        </g>
        <path
           id="path5073"
           style="fill:#000000;fill-opacity:1;fill-rule:nonzero;stroke:none"
           d="m 79.709617,97.032526 c -0.70718,-3.40509 -2.77396,-5.10992 -4.62174,-3.79594 -1.84169,1.31246 -2.7633,5.13729 -2.05005,8.548464 0.70718,3.40965 2.77396,5.10839 4.62174,3.79594 1.8417,-1.31398 2.76331,-5.13881 2.05005,-8.548464 z"
           inkscape:connector-curvature="0" />
        <g
           transform="matrix(0.82250745,-0.58502119,-0.31640096,-1.5208075,-170.02979,131.61259)"
           id="g5075">
          <path
             id="path5077"
             style="fill:none;stroke:#000000;stroke-width:0.66759992;stroke-linecap:butt;stroke-linejoin:miter;stroke-miterlimit:4;stroke-opacity:1;stroke-dasharray:none"
             d="m 265.88,-79.399 0.003,9.959"
             inkscape:connector-curvature="0" />
        </g>
        <g
           transform="matrix(0.82250745,-0.58502119,-0.31640096,-1.5208075,-170.02979,131.61259)"
           id="g5079">
          <path
             id="path5081"
             style="fill:none;stroke:#000000;stroke-width:0.66759992;stroke-linecap:butt;stroke-linejoin:miter;stroke-miterlimit:4;stroke-opacity:1;stroke-dasharray:none"
             d="m 269.99,-79.398 0.004,9.959"
             inkscape:connector-curvature="0" />
        </g>
        <path
           id="path5083"
           style="fill:#000000;fill-opacity:1;fill-rule:nonzero;stroke:none"
           d="m 88.401027,99.859706 c -0.70717,-3.40965 -2.77547,-5.10839 -4.62173,-3.79594 -1.8417,1.30638 -2.76331,5.132734 -2.05613,8.542384 0.71326,3.40965 2.78003,5.10991 4.62781,3.80202 1.8417,-1.31246 2.76179,-5.13881 2.05005,-8.548464 z"
           inkscape:connector-curvature="0" />
        <g
           transform="matrix(0.82250745,-0.58502119,-0.31640096,-1.5208075,-170.02979,131.61259)"
           id="g5085">
          <path
             id="path5087"
             style="fill:none;stroke:#000000;stroke-width:0.66759992;stroke-linecap:butt;stroke-linejoin:miter;stroke-miterlimit:4;stroke-opacity:1;stroke-dasharray:none"
             d="m 274.463,-84.556 0.002,9.956"
             inkscape:connector-curvature="0" />
        </g>
        <g
           transform="matrix(0.82250745,-0.58502119,-0.31640096,-1.5208075,-170.02979,131.61259)"
           id="g5089">
          <path
             id="path5091"
             style="fill:none;stroke:#000000;stroke-width:0.66759992;stroke-linecap:butt;stroke-linejoin:miter;stroke-miterlimit:4;stroke-opacity:1;stroke-dasharray:none"
             d="m 278.572,-84.559 0.003,9.96"
             inkscape:connector-curvature="0" />
        </g>
        <path
           id="path5093"
           style="fill:#000000;fill-opacity:1;fill-rule:nonzero;stroke:none"
           d="m 97.525877,102.03446 c -0.70718,-3.409654 -2.77548,-5.115994 -4.62174,-3.802024 -1.84169,1.31246 -2.7633,5.138814 -2.05613,8.548464 0.71326,3.40966 2.78004,5.1084 4.62782,3.79594 1.8417,-1.30637 2.76179,-5.13881 2.05005,-8.54238 z"
           inkscape:connector-curvature="0" />
        <g
           transform="matrix(0.82250745,-0.58502119,-0.31640096,-1.5208075,-170.02979,131.61259)"
           id="g5095">
          <path
             id="path5097"
             style="fill:none;stroke:#000000;stroke-width:0.66759992;stroke-linecap:butt;stroke-linejoin:miter;stroke-miterlimit:4;stroke-opacity:1;stroke-dasharray:none"
             d="m 283.648,-89.519 0.003,9.959"
             inkscape:connector-curvature="0" />
        </g>
        <g
           transform="matrix(0.82250745,-0.58502119,-0.31640096,-1.5208075,-170.02979,131.61259)"
           id="g5099">
          <path
             id="path5101"
             style="fill:none;stroke:#000000;stroke-width:0.66759992;stroke-linecap:butt;stroke-linejoin:miter;stroke-miterlimit:4;stroke-opacity:1;stroke-dasharray:none"
             d="m 287.757,-89.522 0.003,9.96"
             inkscape:connector-curvature="0" />
        </g>
        <path
           id="path5103"
           style="fill:#000000;fill-opacity:1;fill-rule:nonzero;stroke:none"
           d="m 106.86972,104.63657 c -0.70718,-3.40509 -2.78004,-5.109924 -4.62174,-3.79594 -1.84778,1.31246 -2.761783,5.13729 -2.05461,8.54846 0.70566,3.40965 2.78004,5.10839 4.62174,3.79594 1.8417,-1.31398 2.76178,-5.13881 2.05461,-8.54846 z"
           inkscape:connector-curvature="0" />
        <g
           transform="matrix(0.82250745,-0.58502119,-0.31640096,-1.5208075,-170.02979,131.61259)"
           id="g5105">
          <path
             id="path5107"
             style="fill:none;stroke:#000000;stroke-width:0.66759992;stroke-linecap:butt;stroke-linejoin:miter;stroke-miterlimit:4;stroke-opacity:1;stroke-dasharray:none"
             d="m 292.97,-94.82 -0.003,9.962"
             inkscape:connector-curvature="0" />
        </g>
        <g
           transform="matrix(0.82250745,-0.58502119,-0.31640096,-1.5208075,-170.02979,131.61259)"
           id="g5109">
          <path
             id="path5111"
             style="fill:none;stroke:#000000;stroke-width:0.66759992;stroke-linecap:butt;stroke-linejoin:miter;stroke-miterlimit:4;stroke-opacity:1;stroke-dasharray:none"
             d="m 297.08,-94.819 -0.003,9.962"
             inkscape:connector-curvature="0" />
        </g>
        <path
           id="path5113"
           style="fill:#000000;fill-opacity:1;fill-rule:nonzero;stroke:none"
           d="m 116.209,106.59689 c -0.70718,-3.40965 -2.77396,-5.116 -4.62174,-3.80202 -1.84169,1.31245 -2.7633,5.13881 -2.05005,8.54846 0.70718,3.40965 2.77396,5.10839 4.62174,3.79593 1.8417,-1.30637 2.76331,-5.13881 2.05005,-8.54237 z"
           inkscape:connector-curvature="0" />
        <g
           transform="matrix(0.82250745,-0.58502119,-0.31640096,-1.5208075,-170.02979,131.61259)"
           id="g5115">
          <path
             id="path5117"
             style="fill:none;stroke:#000000;stroke-width:0.66759992;stroke-linecap:butt;stroke-linejoin:miter;stroke-miterlimit:4;stroke-opacity:1;stroke-dasharray:none"
             d="m 302.43,-99.744 0.003,9.959"
             inkscape:connector-curvature="0" />
        </g>
        <g
           transform="matrix(0.82250745,-0.58502119,-0.31640096,-1.5208075,-170.02979,131.61259)"
           id="g5119">
          <path
             id="path5121"
             style="fill:none;stroke:#000000;stroke-width:0.66759992;stroke-linecap:butt;stroke-linejoin:miter;stroke-miterlimit:4;stroke-opacity:1;stroke-dasharray:none"
             d="m 306.538,-99.747 0.004,9.96"
             inkscape:connector-curvature="0" />
        </g>
        <path
           id="path5133"
           style="fill:#000000;fill-opacity:1;fill-rule:nonzero;stroke:none"
           d="m 34.304386,84.65163 c -0.705655,-3.409651 -2.780036,-5.108393 -4.621734,-3.795936 -1.841698,1.306374 -2.761787,5.132722 -2.054611,8.542372 0.713258,3.40965 2.780036,5.10992 4.621734,3.80202 1.847781,-1.31245 2.761786,-5.13881 2.054611,-8.548456 z"
           inkscape:connector-curvature="0" />
        <g
           transform="matrix(0.82250745,-0.58502119,-0.31640096,-1.5208075,-170.02979,131.61259)"
           id="g5135">
          <path
             id="path5137"
             style="fill:none;stroke:#000000;stroke-width:0.66759992;stroke-linecap:butt;stroke-linejoin:miter;stroke-miterlimit:4;stroke-opacity:1;stroke-dasharray:none"
             d="m 220.523,-53.807 0.002,9.957"
             inkscape:connector-curvature="0" />
        </g>
        <g
           transform="matrix(0.82250745,-0.58502119,-0.31640096,-1.5208075,-170.02979,131.61259)"
           id="g5139">
          <path
             id="path5141"
             style="fill:none;stroke:#000000;stroke-width:0.66759992;stroke-linecap:butt;stroke-linejoin:miter;stroke-miterlimit:4;stroke-opacity:1;stroke-dasharray:none"
             d="m 224.631,-53.809 -0.003,9.962"
             inkscape:connector-curvature="0" />
        </g>
        <path
           id="path5173"
           style="fill:#000000;fill-opacity:1;fill-rule:nonzero;stroke:none"
           d="m 28.560296,50.784768 c 0.249412,3.468961 2.078944,5.429282 4.081847,4.372321 1.9953,-1.052399 3.415734,-4.723628 3.166321,-8.198673 -0.255495,-3.475045 -2.080464,-5.429283 -4.081847,-4.378405 -2.001383,1.056961 -3.415734,4.728191 -3.166321,8.204757 z"
           inkscape:connector-curvature="0" />
        <g
           transform="matrix(-0.87627559,0.46236046,0.11028531,1.5208075,-170.02979,131.61259)"
           id="g5175">
          <path
             id="path5177"
             style="fill:none;stroke:#000000;stroke-width:0.68010908;stroke-linecap:butt;stroke-linejoin:miter;stroke-miterlimit:4;stroke-opacity:1;stroke-dasharray:none"
             d="m -231.066,17.757 -0.004,10.146"
             inkscape:connector-curvature="0" />
        </g>
        <g
           transform="matrix(-0.87627559,0.46236046,0.11028531,1.5208075,-170.02979,131.61259)"
           id="g5179">
          <path
             id="path5181"
             style="fill:none;stroke:#000000;stroke-width:0.68010908;stroke-linecap:butt;stroke-linejoin:miter;stroke-miterlimit:4;stroke-opacity:1;stroke-dasharray:none"
             d="m -226.883,17.759 0.002,10.144"
             inkscape:connector-curvature="0" />
        </g>
        <path
           id="path5183"
           style="fill:#000000;fill-opacity:1;fill-rule:nonzero;stroke:none"
           d="m 36.585597,53.754905 c 0.713259,3.40965 2.781557,5.108392 4.621734,3.802018 1.847781,-1.313977 2.76939,-5.138808 2.056132,-8.548459 -0.707176,-3.411171 -2.780036,-5.109913 -4.621734,-3.802018 -1.841698,1.312456 -2.761787,5.137287 -2.056132,8.548459 z"
           inkscape:connector-curvature="0" />
        <g
           transform="matrix(-0.82250745,0.58502119,0.31640096,1.5208075,-170.02979,131.61259)"
           id="g5185">
          <path
             id="path5187"
             style="fill:none;stroke:#000000;stroke-width:0.66759992;stroke-linecap:butt;stroke-linejoin:miter;stroke-miterlimit:4;stroke-opacity:1;stroke-dasharray:none"
             d="m -242.208,42.121 -0.004,9.959"
             inkscape:connector-curvature="0" />
        </g>
        <g
           transform="matrix(-0.82250745,0.58502119,0.31640096,1.5208075,-170.02979,131.61259)"
           id="g5189">
          <path
             id="path5191"
             style="fill:none;stroke:#000000;stroke-width:0.66759992;stroke-linecap:butt;stroke-linejoin:miter;stroke-miterlimit:4;stroke-opacity:1;stroke-dasharray:none"
             d="m -238.099,42.119 -0.003,9.962"
             inkscape:connector-curvature="0" />
        </g>
        <path
           id="path5193"
           style="fill:#000000;fill-opacity:1;fill-rule:nonzero;stroke:none"
           d="m 45.710442,56.361569 c 0.713259,3.411171 2.781557,5.109913 4.621734,3.797456 1.847781,-1.307894 2.76939,-5.132725 2.056132,-8.543897 -0.707176,-3.40965 -2.780036,-5.108392 -4.621734,-3.802018 -1.841698,1.313977 -2.761787,5.138808 -2.056132,8.548459 z"
           inkscape:connector-curvature="0" />
        <g
           transform="matrix(-0.82250745,0.58502119,0.31640096,1.5208075,-170.02979,131.61259)"
           id="g5195">
          <path
             id="path5197"
             style="fill:none;stroke:#000000;stroke-width:0.66759992;stroke-linecap:butt;stroke-linejoin:miter;stroke-miterlimit:4;stroke-opacity:1;stroke-dasharray:none"
             d="m -251.298,47.329 -0.003,9.962"
             inkscape:connector-curvature="0" />
        </g>
        <g
           transform="matrix(-0.82250745,0.58502119,0.31640096,1.5208075,-170.02979,131.61259)"
           id="g5199">
          <path
             id="path5201"
             style="fill:none;stroke:#000000;stroke-width:0.66759992;stroke-linecap:butt;stroke-linejoin:miter;stroke-miterlimit:4;stroke-opacity:1;stroke-dasharray:none"
             d="m -247.188,47.33 -0.003,9.962"
             inkscape:connector-curvature="0" />
        </g>
        <path
           id="path5203"
           style="fill:#000000;fill-opacity:1;fill-rule:nonzero;stroke:none"
           d="m 55.270238,59.403184 c 0.711738,3.411171 2.780036,5.109913 4.627817,3.797456 1.840177,-1.307894 2.761787,-5.132725 2.048528,-8.543897 -0.707176,-3.40965 -2.773953,-5.108392 -4.621734,-3.802018 -1.841698,1.313977 -2.761787,5.138808 -2.054611,8.548459 z"
           inkscape:connector-curvature="0" />
        <g
           transform="matrix(-0.82250745,0.58502119,0.31640096,1.5208075,-170.02979,131.61259)"
           id="g5205">
          <path
             id="path5207"
             style="fill:none;stroke:#000000;stroke-width:0.66759992;stroke-linecap:butt;stroke-linejoin:miter;stroke-miterlimit:4;stroke-opacity:1;stroke-dasharray:none"
             d="m -260.751,52.965 -0.003,9.963"
             inkscape:connector-curvature="0" />
        </g>
        <g
           transform="matrix(-0.82250745,0.58502119,0.31640096,1.5208075,-170.02979,131.61259)"
           id="g5209">
          <path
             id="path5211"
             style="fill:none;stroke:#000000;stroke-width:0.66759992;stroke-linecap:butt;stroke-linejoin:miter;stroke-miterlimit:4;stroke-opacity:1;stroke-dasharray:none"
             d="m -256.648,52.969 0.004,9.959"
             inkscape:connector-curvature="0" />
        </g>
        <path
           id="path5213"
           style="fill:#000000;fill-opacity:1;fill-rule:nonzero;stroke:none"
           d="m 64.614079,61.577938 c 0.707178,3.409651 2.780038,5.109914 4.621738,3.795936 1.84169,-1.312457 2.7633,-5.138809 2.05613,-8.548459 -0.70718,-3.403567 -2.78004,-5.108392 -4.62174,-3.795936 -1.847777,1.312457 -2.763303,5.138809 -2.056128,8.548459 z"
           inkscape:connector-curvature="0" />
        <g
           transform="matrix(-0.82250745,0.58502119,0.31640096,1.5208075,-170.02979,131.61259)"
           id="g5215">
          <path
             id="path5217"
             style="fill:none;stroke:#000000;stroke-width:0.66759992;stroke-linecap:butt;stroke-linejoin:miter;stroke-miterlimit:4;stroke-opacity:1;stroke-dasharray:none"
             d="m -270.169,58.018 -0.003,9.962"
             inkscape:connector-curvature="0" />
        </g>
        <g
           transform="matrix(-0.82250745,0.58502119,0.31640096,1.5208075,-170.02979,131.61259)"
           id="g5219">
          <path
             id="path5221"
             style="fill:none;stroke:#000000;stroke-width:0.66759992;stroke-linecap:butt;stroke-linejoin:miter;stroke-miterlimit:4;stroke-opacity:1;stroke-dasharray:none"
             d="m -266.059,58.019 -0.003,9.962"
             inkscape:connector-curvature="0" />
        </g>
        <path
           id="path5223"
           style="fill:#000000;fill-opacity:1;fill-rule:nonzero;stroke:none"
           d="m 73.738927,63.532176 c 0.70717,3.411171 2.78003,5.109913 4.62173,3.795936 1.8417,-1.312457 2.76331,-5.137288 2.05613,-8.542376 -0.70717,-3.409651 -2.78003,-5.114476 -4.62173,-3.802019 -1.84778,1.313978 -2.76331,5.138809 -2.05613,8.548459 z"
           inkscape:connector-curvature="0" />
        <g
           transform="matrix(-0.82250745,0.58502119,0.31640096,1.5208075,-170.02979,131.61259)"
           id="g5225">
          <path
             id="path5227"
             style="fill:none;stroke:#000000;stroke-width:0.66759992;stroke-linecap:butt;stroke-linejoin:miter;stroke-miterlimit:4;stroke-opacity:1;stroke-dasharray:none"
             d="m -279.402,62.855 -0.003,9.962"
             inkscape:connector-curvature="0" />
        </g>
        <g
           transform="matrix(-0.82250745,0.58502119,0.31640096,1.5208075,-170.02979,131.61259)"
           id="g5229">
          <path
             id="path5231"
             style="fill:none;stroke:#000000;stroke-width:0.66759992;stroke-linecap:butt;stroke-linejoin:miter;stroke-miterlimit:4;stroke-opacity:1;stroke-dasharray:none"
             d="m -275.292,62.856 -0.003,9.962"
             inkscape:connector-curvature="0" />
        </g>
        <path
           id="path5233"
           style="fill:#000000;fill-opacity:1;fill-rule:nonzero;stroke:none"
           d="m 82.863767,66.354795 c 0.70718,3.40965 2.78004,5.108392 4.62174,3.802018 1.84169,-1.312456 2.7633,-5.138808 2.05613,-8.548458 -0.70718,-3.409651 -2.78004,-5.109914 -4.62174,-3.795936 -1.84778,1.306374 -2.7633,5.138809 -2.05613,8.542376 z"
           inkscape:connector-curvature="0" />
        <g
           transform="matrix(-0.82250745,0.58502119,0.31640096,1.5208075,-170.02979,131.61259)"
           id="g5235">
          <path
             id="path5237"
             style="fill:none;stroke:#000000;stroke-width:0.66759992;stroke-linecap:butt;stroke-linejoin:miter;stroke-miterlimit:4;stroke-opacity:1;stroke-dasharray:none"
             d="m -288.443,68.192 -0.003,9.962"
             inkscape:connector-curvature="0" />
        </g>
        <g
           transform="matrix(-0.82250745,0.58502119,0.31640096,1.5208075,-170.02979,131.61259)"
           id="g5239">
          <path
             id="path5241"
             style="fill:none;stroke:#000000;stroke-width:0.66759992;stroke-linecap:butt;stroke-linejoin:miter;stroke-miterlimit:4;stroke-opacity:1;stroke-dasharray:none"
             d="m -284.334,68.19 -0.003,9.962"
             inkscape:connector-curvature="0" />
        </g>
        <path
           id="path5243"
           style="fill:#000000;fill-opacity:1;fill-rule:nonzero;stroke:none"
           d="m 91.988617,68.748546 c 0.70717,3.403567 2.78003,5.108392 4.62173,3.795935 1.8417,-1.312457 2.76331,-5.138808 2.05613,-8.548459 -0.70717,-3.40965 -2.78003,-5.108392 -4.62173,-3.795935 -1.84778,1.312457 -2.76331,5.138808 -2.05613,8.548459 z"
           inkscape:connector-curvature="0" />
        <g
           transform="matrix(-0.82250745,0.58502119,0.31640096,1.5208075,-170.02979,131.61259)"
           id="g5245">
          <path
             id="path5247"
             style="fill:none;stroke:#000000;stroke-width:0.66759992;stroke-linecap:butt;stroke-linejoin:miter;stroke-miterlimit:4;stroke-opacity:1;stroke-dasharray:none"
             d="m -297.581,73.277 -0.003,9.962"
             inkscape:connector-curvature="0" />
        </g>
        <g
           transform="matrix(-0.82250745,0.58502119,0.31640096,1.5208075,-170.02979,131.61259)"
           id="g5249">
          <path
             id="path5251"
             style="fill:none;stroke:#000000;stroke-width:0.66759992;stroke-linecap:butt;stroke-linejoin:miter;stroke-miterlimit:4;stroke-opacity:1;stroke-dasharray:none"
             d="m -293.471,73.278 -0.003,9.962"
             inkscape:connector-curvature="0" />
        </g>
        <path
           id="path5253"
           style="fill:#000000;fill-opacity:1;fill-rule:nonzero;stroke:none"
           d="m 101.98032,70.483787 c 0.71326,3.40965 2.78156,5.108392 4.62174,3.802019 1.84778,-1.313978 2.76939,-5.138809 2.05613,-8.548459 -0.70718,-3.411171 -2.78004,-5.109913 -4.62174,-3.802019 -1.84169,1.312457 -2.76178,5.137288 -2.05613,8.548459 z"
           inkscape:connector-curvature="0" />
        <g
           transform="matrix(-0.82250745,0.58502119,0.31640096,1.5208075,-170.02979,131.61259)"
           id="g5255">
          <path
             id="path5257"
             style="fill:none;stroke:#000000;stroke-width:0.66759992;stroke-linecap:butt;stroke-linejoin:miter;stroke-miterlimit:4;stroke-opacity:1;stroke-dasharray:none"
             d="m -307.78,78.345 -0.004,9.959"
             inkscape:connector-curvature="0" />
        </g>
        <g
           transform="matrix(-0.82250745,0.58502119,0.31640096,1.5208075,-170.02979,131.61259)"
           id="g5259">
          <path
             id="path5261"
             style="fill:none;stroke:#000000;stroke-width:0.66759992;stroke-linecap:butt;stroke-linejoin:miter;stroke-miterlimit:4;stroke-opacity:1;stroke-dasharray:none"
             d="m -303.671,78.343 -0.003,9.962"
             inkscape:connector-curvature="0" />
        </g>
        <path
           id="path5263"
           style="fill:#000000;fill-opacity:1;fill-rule:nonzero;stroke:none"
           d="m 110.67174,73.090451 c 0.71326,3.411171 2.78003,5.109913 4.62173,3.797456 1.84778,-1.307894 2.76331,-5.132725 2.05613,-8.543896 -0.70717,-3.40965 -2.78003,-5.108392 -4.62173,-3.802019 -1.8417,1.313978 -2.76331,5.138809 -2.05613,8.548459 z"
           inkscape:connector-curvature="0" />
        <g
           transform="matrix(-0.82250745,0.58502119,0.31640096,1.5208075,-170.02979,131.61259)"
           id="g5265">
          <path
             id="path5267"
             style="fill:none;stroke:#000000;stroke-width:0.66759992;stroke-linecap:butt;stroke-linejoin:miter;stroke-miterlimit:4;stroke-opacity:1;stroke-dasharray:none"
             d="m -316.411,83.376 -0.003,9.963"
             inkscape:connector-curvature="0" />
        </g>
        <g
           transform="matrix(-0.82250745,0.58502119,0.31640096,1.5208075,-170.02979,131.61259)"
           id="g5269">
          <path
             id="path5271"
             style="fill:none;stroke:#000000;stroke-width:0.66759992;stroke-linecap:butt;stroke-linejoin:miter;stroke-miterlimit:4;stroke-opacity:1;stroke-dasharray:none"
             d="m -312.301,83.377 -0.003,9.963"
             inkscape:connector-curvature="0" />
        </g>
        <path
           sodipodi:type="arc"
           style="opacity:0.5;fill:none;stroke:#ff0000;stroke-width:8.72283554;stroke-miterlimit:4;stroke-opacity:1;stroke-dasharray:none"
           id="path6872"
           sodipodi:cx="252.5"
           sodipodi:cy="367.00504"
           sodipodi:rx="24.642857"
           sodipodi:ry="24.642857"
           d="m 233.80891,350.94535 c 8.32742,-9.69188 22.68158,-11.41075 33.06189,-3.95907"
           transform="matrix(0.60898191,-0.18293827,-0.17879826,-0.62308265,38.844574,373.18743)"
           sodipodi:start="3.8514129"
           sodipodi:end="5.3350057"
           sodipodi:open="true" />
        <rect
           style="opacity:0.5;fill:#00ff00;fill-opacity:1;stroke:none"
           id="rect7698"
           width="22.403074"
           height="17.011934"
           x="82.737473"
           y="-165.2153"
           transform="matrix(0.87788828,-0.4788655,-0.50031267,-0.86584481,0,0)" />
        <path
           sodipodi:type="arc"
           style="opacity:0.5;fill:none;stroke:#ff0000;stroke-width:8.72283554;stroke-miterlimit:4;stroke-opacity:1;stroke-dasharray:none"
           id="path6872-2"
           sodipodi:cx="252.5"
           sodipodi:cy="367.00504"
           sodipodi:rx="24.642857"
           sodipodi:ry="24.642857"
           d="m 233.80891,350.94535 c 8.32742,-9.69188 22.68158,-11.41075 33.06189,-3.95907"
           transform="matrix(-0.62019146,0.14031368,0.13520683,0.63397154,125.92692,-206.93804)"
           sodipodi:start="3.8514129"
           sodipodi:end="5.3350057"
           sodipodi:open="true"
           inkscape:transform-center-x="-22.728432"
           inkscape:transform-center-y="17.67767" />
        <rect
           style="opacity:0.5;fill:#00ff00;fill-opacity:1;stroke:none"
           id="rect7698-1"
           width="22.262138"
           height="17.160398"
           x="109.09943"
           y="-149.61044"
           transform="matrix(0.87197766,-0.48954567,-0.48954567,-0.87197766,0,0)" />
        <rect
           style="opacity:0.5;fill:#00ff00;fill-opacity:1;stroke:none"
           id="rect7698-9"
           width="11.48205"
           height="30.813791"
           x="-58.111786"
           y="-78.079674"
           transform="matrix(0.88166918,-0.47186805,-0.49034072,-0.87153083,0,0)" />
      </g>
    </g>
  </g>
</svg>
