<?xml version="1.0" encoding="UTF-8" standalone="no"?>
<!-- Created with Inkscape (http://www.inkscape.org/) -->

<svg
   xmlns:dc="http://purl.org/dc/elements/1.1/"
   xmlns:cc="http://creativecommons.org/ns#"
   xmlns:rdf="http://www.w3.org/1999/02/22-rdf-syntax-ns#"
   xmlns:svg="http://www.w3.org/2000/svg"
   xmlns="http://www.w3.org/2000/svg"
   xmlns:sodipodi="http://sodipodi.sourceforge.net/DTD/sodipodi-0.dtd"
   xmlns:inkscape="http://www.inkscape.org/namespaces/inkscape"
   width="355.15848"
   height="96.096069"
   id="svg2"
   version="1.1"
   inkscape:version="0.48.3.1 r9886"
   sodipodi:docname="New document 1">
  <sodipodi:namedview
     id="base"
     pagecolor="#ffffff"
     bordercolor="#666666"
     borderopacity="1.0"
     inkscape:pageopacity="0.0"
     inkscape:pageshadow="2"
     inkscape:zoom="2.8"
     inkscape:cx="224.52399"
     inkscape:cy="84.721031"
     inkscape:document-units="px"
     inkscape:current-layer="layer1"
     showgrid="false"
     showguides="true"
     inkscape:guide-bbox="true"
     inkscape:window-width="1440"
     inkscape:window-height="876"
     inkscape:window-x="0"
     inkscape:window-y="24"
     inkscape:window-maximized="1"
     fit-margin-top="0"
     fit-margin-left="0"
     fit-margin-right="0"
     fit-margin-bottom="0">
    <inkscape:grid
       type="xygrid"
       id="grid2985"
       empspacing="5"
       visible="true"
       enabled="true"
       snapvisiblegridlinesonly="true"
       originx="-56.341515px"
       originy="-14.403931px" />
  </sodipodi:namedview>
  <defs
     id="defs4">
    <marker
       inkscape:stockid="Arrow1Mstart"
       orient="auto"
       refY="0"
       refX="0"
       id="Arrow1Mstart"
       style="overflow:visible">
      <path
         id="path4195"
         d="M 0,0 5,-5 -12.5,0 5,5 0,0 z"
         style="fill-rule:evenodd;stroke:#000000;stroke-width:1pt"
         transform="matrix(0.4,0,0,0.4,4,0)"
         inkscape:connector-curvature="0" />
    </marker>
    <marker
       inkscape:stockid="Arrow1Mend"
       orient="auto"
       refY="0"
       refX="0"
       id="Arrow1Mend"
       style="overflow:visible">
      <path
         id="path4198"
         d="M 0,0 5,-5 -12.5,0 5,5 0,0 z"
         style="fill-rule:evenodd;stroke:#000000;stroke-width:1pt"
         transform="matrix(-0.4,0,0,-0.4,-4,0)"
         inkscape:connector-curvature="0" />
    </marker>
    <marker
       inkscape:stockid="Arrow1Mstart"
       orient="auto"
       refY="0"
       refX="0"
       id="Arrow1Mstart-5"
       style="overflow:visible">
      <path
         inkscape:connector-curvature="0"
         id="path4195-0"
         d="M 0,0 5,-5 -12.5,0 5,5 0,0 z"
         style="fill-rule:evenodd;stroke:#000000;stroke-width:1pt"
         transform="matrix(0.4,0,0,0.4,4,0)" />
    </marker>
    <marker
       inkscape:stockid="Arrow1Mend"
       orient="auto"
       refY="0"
       refX="0"
       id="Arrow1Mend-7"
       style="overflow:visible">
      <path
         inkscape:connector-curvature="0"
         id="path4198-5"
         d="M 0,0 5,-5 -12.5,0 5,5 0,0 z"
         style="fill-rule:evenodd;stroke:#000000;stroke-width:1pt"
         transform="matrix(-0.4,0,0,-0.4,-4,0)" />
    </marker>
    <marker
       inkscape:stockid="Arrow1Mend"
       orient="auto"
       refY="0"
       refX="0"
       id="Arrow1Mend-7-3"
       style="overflow:visible">
      <path
         inkscape:connector-curvature="0"
         id="path4198-5-1"
         d="M 0,0 5,-5 -12.5,0 5,5 0,0 z"
         style="fill-rule:evenodd;stroke:#000000;stroke-width:1pt"
         transform="matrix(-0.4,0,0,-0.4,-4,0)" />
    </marker>
    <marker
       inkscape:stockid="Arrow1Mend"
       orient="auto"
       refY="0"
       refX="0"
       id="Arrow1Mend-7-31"
       style="overflow:visible">
      <path
         inkscape:connector-curvature="0"
         id="path4198-5-2"
         d="M 0,0 5,-5 -12.5,0 5,5 0,0 z"
         style="fill-rule:evenodd;stroke:#000000;stroke-width:1pt"
         transform="matrix(-0.4,0,0,-0.4,-4,0)" />
    </marker>
    <marker
       inkscape:stockid="Arrow1Mend"
       orient="auto"
       refY="0"
       refX="0"
       id="marker6535"
       style="overflow:visible">
      <path
         inkscape:connector-curvature="0"
         id="path6537"
         d="M 0,0 5,-5 -12.5,0 5,5 0,0 z"
         style="fill-rule:evenodd;stroke:#000000;stroke-width:1pt"
         transform="matrix(-0.4,0,0,-0.4,-4,0)" />
    </marker>
    <marker
       inkscape:stockid="Arrow1Mend"
       orient="auto"
       refY="0"
       refX="0"
       id="Arrow1Mend-7-8"
       style="overflow:visible">
      <path
         inkscape:connector-curvature="0"
         id="path4198-5-8"
         d="M 0,0 5,-5 -12.5,0 5,5 0,0 z"
         style="fill-rule:evenodd;stroke:#000000;stroke-width:1pt"
         transform="matrix(-0.4,0,0,-0.4,-4,0)" />
    </marker>
    <marker
       inkscape:stockid="Arrow1Mend"
       orient="auto"
       refY="0"
       refX="0"
       id="marker6570"
       style="overflow:visible">
      <path
         inkscape:connector-curvature="0"
         id="path6572"
         d="M 0,0 5,-5 -12.5,0 5,5 0,0 z"
         style="fill-rule:evenodd;stroke:#000000;stroke-width:1pt"
         transform="matrix(-0.4,0,0,-0.4,-4,0)" />
    </marker>
  </defs>
  <metadata
     id="metadata7">
    <rdf:RDF>
      <cc:Work
         rdf:about="">
        <dc:format>image/svg+xml</dc:format>
        <dc:type
           rdf:resource="http://purl.org/dc/dcmitype/StillImage" />
        <dc:title></dc:title>
      </cc:Work>
    </rdf:RDF>
  </metadata>
  <g
     inkscape:label="Layer 1"
     inkscape:groupmode="layer"
     id="layer1"
     transform="translate(-56.341515,-941.86218)">
    <path
       style="fill:none;stroke:#000000;stroke-width:1.99999988;stroke-linecap:butt;stroke-linejoin:miter;stroke-miterlimit:0;stroke-opacity:1;stroke-dasharray:none;marker-mid:none;marker-end:url(#Arrow1Mend)"
       d="m 114.11611,1022.3622 137.1361,0"
       id="path4183"
       inkscape:connector-curvature="0" />
    <path
       style="fill:none;stroke:#000000;stroke-width:1;stroke-linecap:butt;stroke-linejoin:miter;stroke-miterlimit:4;stroke-opacity:1;stroke-dasharray:4, 4;stroke-dashoffset:2.6"
       d="m 105,982.36218 140,0 10,40.00002"
       id="path5013"
       inkscape:connector-curvature="0" />
    <path
       style="fill:none;stroke:#000000;stroke-width:1;stroke-linecap:butt;stroke-linejoin:miter;stroke-miterlimit:4;stroke-opacity:1;stroke-dasharray:4, 4;stroke-dashoffset:7.6"
       d="m 245,982.36218 140,0 10,40.00002"
       id="path5013-9"
       inkscape:connector-curvature="0" />
    <path
       style="fill:none;stroke:#000000;stroke-width:1;stroke-linecap:butt;stroke-linejoin:miter;stroke-miterlimit:4;stroke-opacity:1;stroke-dasharray:4, 4;stroke-dashoffset:3.4"
       d="m 235,942.36218 140,0 10,40.00002"
       id="path5013-3"
       inkscape:connector-curvature="0" />
    <path
       style="fill:none;stroke:#000000;stroke-width:1;stroke-linecap:butt;stroke-linejoin:miter;stroke-miterlimit:4;stroke-opacity:1;stroke-dasharray:4, 4;stroke-dashoffset:2.6"
       d="m 95,942.36218 140,0 10,40.00002"
       id="path5013-2"
       inkscape:connector-curvature="0" />
    <path
       style="fill:none;stroke:#000000;stroke-width:1.99999988;stroke-linecap:butt;stroke-linejoin:miter;stroke-miterlimit:4;stroke-opacity:1;stroke-dasharray:none;marker-end:url(#Arrow1Mend)"
       d="m 115.21748,1023.1198 -9.30683,-37.56037"
       id="path5065"
       inkscape:connector-curvature="0" />
    <path
       style="fill:none;stroke:#000000;stroke-width:1;stroke-linecap:butt;stroke-linejoin:miter;stroke-miterlimit:4;stroke-opacity:1;stroke-dasharray:4, 4;stroke-dashoffset:0"
       d="m 105,982.36218 -10,-40"
       id="path5270"
       inkscape:connector-curvature="0" />
    <path
       style="fill:none;stroke:#000000;stroke-width:1;stroke-linecap:butt;stroke-linejoin:miter;stroke-miterlimit:4;stroke-opacity:1;stroke-dasharray:4, 4;stroke-dashoffset:0"
       d="m 255,1022.3622 140,0"
       id="path5272"
       inkscape:connector-curvature="0" />
    <path
       style="fill:none;stroke:#000000;stroke-width:3;stroke-linecap:butt;stroke-linejoin:miter;stroke-miterlimit:4;stroke-opacity:1;stroke-dasharray:none"
       d="m 80,952.36218 40,20 100,-20 40,20 100,-20 40,20"
       id="path5274"
       inkscape:connector-curvature="0" />
    <path
       style="fill:none;stroke:#000000;stroke-width:3;stroke-linecap:butt;stroke-linejoin:miter;stroke-miterlimit:4;stroke-opacity:1;stroke-dasharray:none"
       d="m 90,992.36218 40,20.00002 100,-20.00002 40,20.00002 100,-20.00002 40,20.00002"
       id="path5274-4"
       inkscape:connector-curvature="0" />
    <path
       sodipodi:type="arc"
       style="fill:none;stroke:#000000;stroke-width:1.25734818;stroke-linejoin:miter;stroke-miterlimit:0;stroke-opacity:1;stroke-dasharray:none;stroke-dashoffset:7.6"
       id="path5668"
       sodipodi:cx="115.44643"
       sodipodi:cy="1024.1479"
       sodipodi:rx="5.4464288"
       sodipodi:ry="5.8928571"
       d="m 114.9536,1018.2793 c 2.60547,-0.2562 5.01118,1.5283 5.72977,4.25"
       sodipodi:start="4.6217787"
       sodipodi:end="6.0049368"
       sodipodi:open="true"
       transform="matrix(1.5616572,0,0,1.62018,74.033939,-634.14084)" />
    <text
       xml:space="preserve"
       style="font-size:22px;font-style:normal;font-variant:normal;font-weight:normal;font-stretch:normal;line-height:125%;letter-spacing:0px;word-spacing:0px;fill:#000000;fill-opacity:1;stroke:none;font-family:Times New Roman;-inkscape-font-specification:Times New Roman"
       x="261.875"
       y="1018.4336"
       id="text5670"
       sodipodi:linespacing="125%"><tspan
         sodipodi:role="line"
         id="tspan5672"
         x="261.875"
         y="1018.4336"
         style="font-size:12px">γ</tspan></text>
    <path
       style="fill:none;stroke:#000000;stroke-width:1px;stroke-linecap:butt;stroke-linejoin:miter;stroke-opacity:1"
       d="m 130,1012.3622 100,0 0,-20.00002"
       id="path5674"
       inkscape:connector-curvature="0" />
    <text
       xml:space="preserve"
       style="font-size:40px;font-style:normal;font-variant:normal;font-weight:normal;font-stretch:normal;line-height:125%;letter-spacing:0px;word-spacing:0px;fill:#000000;fill-opacity:1;stroke:none;font-family:Times New Roman;-inkscape-font-specification:Times New Roman"
       x="181.86929"
       y="1019.1299"
       id="text5676"
       sodipodi:linespacing="125%"><tspan
         sodipodi:role="line"
         id="tspan5678"
         x="181.86929"
         y="1019.1299"
         style="font-size:12px">x<tspan
   style="font-size:65.00091553%;baseline-shift:sub"
   id="tspan5680">0</tspan></tspan></text>
    <text
       xml:space="preserve"
       style="font-size:40px;font-style:normal;font-variant:normal;font-weight:normal;font-stretch:normal;line-height:125%;letter-spacing:0px;word-spacing:0px;fill:#000000;fill-opacity:1;stroke:none;font-family:Times New Roman;-inkscape-font-specification:Times New Roman"
       x="219.87373"
       y="1007.3622"
       id="text5676-8"
       sodipodi:linespacing="125%"><tspan
         sodipodi:role="line"
         id="tspan5678-5"
         x="219.87373"
         y="1007.3622"
         style="font-size:12px">A</tspan></text>
    <g
       transform="matrix(0.40149683,0,0,0.40149683,-27.310847,845.18826)"
       id="g5733">
      <g
         style="font-style:normal;font-variant:normal;font-weight:normal;font-stretch:normal;letter-spacing:normal;word-spacing:normal;text-anchor:start;fill:none;stroke:#000000;stroke-width:2.49067974;stroke-linecap:butt;stroke-linejoin:miter;stroke-miterlimit:10.43299961;stroke-opacity:1;stroke-dasharray:none;stroke-dashoffset:0"
         id="content"
         transform="matrix(1.0629921,0,0,-1.0629921,-186.02362,789.27165)"
         xml:space="preserve"
         stroke-miterlimit="10.433"
         font-style="normal"
         font-variant="normal"
         font-weight="normal"
         font-stretch="normal"
         font-size-adjust="none"
         letter-spacing="normal"
         word-spacing="normal"><path
           style="fill:#000000;stroke-width:0"
           inkscape:connector-curvature="0"
           d="m 474.16,410.04 0,-0.3 0.01,-0.31 0.01,-0.16 0.01,-0.16 0.02,-0.16 0.03,-0.16 0.04,-0.16 0.04,-0.16 0.05,-0.16 0.06,-0.16 0.08,-0.16 0.08,-0.15 0.1,-0.15 0.12,-0.15 0.13,-0.14 0.14,-0.14 0.16,-0.13 0.09,-0.06 0.09,-0.06 0.1,-0.06 0.1,-0.06 0.11,-0.06 0.11,-0.05 0.12,-0.05 0.12,-0.05 0.13,-0.05 0.13,-0.05 0.14,-0.04 0.15,-0.04 0.15,-0.04 0.15,-0.04 0.17,-0.03 0.17,-0.03 0.17,-0.03 0.18,-0.03 0.19,-0.02 0.2,-0.02 0.2,-0.02 0.21,-0.01 0.22,-0.02 0.22,0 0.23,-0.01 0.24,0 h 2.39 c 1,0 1.6,0 1.6,1.2 0,1.14 -0.64,1.14 -1.3,1.14 -3.03,0.05 -3.03,0.71 -3.03,1.85 v 10.7 c 0,4.44 -3.55,7.67 -10.97,7.67 -2.83,0 -8.91,-0.19 -8.91,-4.58 0,-2.18 1.74,-3.14 3.08,-3.14 1.55,0 3.14,1.05 3.14,3.14 0,1.5 -0.94,2.35 -1.09,2.44 1.39,0.3 2.98,0.36 3.59,0.36 3.74,0 5.47,-2.09 5.47,-5.89 v -1.69 -1.54 -4.74 c 0,-4.78 -4.58,-5.42 -5.83,-5.42 -2.53,0 -4.53,1.73 -4.53,3.94 0,5.37 7.88,6.07 10.36,6.22 h 0 v 1.54 c -3.53,-0.15 -16.19,-0.59 -16.19,-7.83 0,-4.78 6.18,-5.67 9.61,-5.67 4,0 6.33,2.05 7.44,4.14 z"
           id="path5736" /></g>    </g>
    <g
       id="g5796"
       transform="matrix(0.28471264,0,0,0.28471264,156.76955,936.08717)">
      <g
         word-spacing="normal"
         letter-spacing="normal"
         font-size-adjust="none"
         font-stretch="normal"
         font-weight="normal"
         font-variant="normal"
         font-style="normal"
         stroke-miterlimit="10.433"
         xml:space="preserve"
         transform="matrix(1.0629921,0,0,-1.0629921,-186.02362,789.27165)"
         id="g5798"
         style="font-style:normal;font-variant:normal;font-weight:normal;font-stretch:normal;letter-spacing:normal;word-spacing:normal;text-anchor:start;fill:none;stroke:#000000;stroke-width:3.51231337;stroke-linecap:butt;stroke-linejoin:miter;stroke-miterlimit:10.43299961;stroke-opacity:1;stroke-dasharray:none;stroke-dashoffset:0"><path
           id="path5800"
           d="m 466.18,426.18 v 14.6 l -8.82,-0.41 v -2.34 c 3.1,0 3.44,0 3.44,-1.94 V 406.2 h 2.34 l 2.44,2.8 c 0.41,-0.41 2.85,-3.1 7.28,-3.1 l -0.45,1.8 c -3.48,0 -5.44,2.69 -5.94,3.44 h 0 v 12.5 c 1.36,1.75 3.75,3.18 6.49,3.18 6.08,0 6.08,-6.03 6.08,-9.51 0,-2.35 0,-5.08 -1.3,-7.03 -1.44,-2.03 -3.74,-2.58 -5.33,-2.58 l 0.45,-1.8 c 7.43,0 12.55,4.49 12.55,11.41 0,6.62 -4.69,11.31 -11.91,11.31 -3.64,0 -6.12,-1.45 -7.32,-2.44 z"
           inkscape:connector-curvature="0"
           style="fill:#000000;stroke-width:0" /></g>    </g>
    <text
       xml:space="preserve"
       style="font-size:40px;font-style:normal;font-variant:normal;font-weight:normal;font-stretch:normal;line-height:125%;letter-spacing:0px;word-spacing:0px;fill:#000000;fill-opacity:1;stroke:none;font-family:Times New Roman;-inkscape-font-specification:Times New Roman"
       x="195"
       y="1047.3622"
       id="text5676-8-1"
       sodipodi:linespacing="125%"><tspan
         sodipodi:role="line"
         id="tspan5678-5-8"
         x="195"
         y="1047.3622"
         style="font-size:12px" /></text>
    <text
       xml:space="preserve"
       style="font-size:40px;font-style:normal;font-variant:normal;font-weight:normal;font-stretch:normal;line-height:125%;letter-spacing:0px;word-spacing:0px;fill:#000000;fill-opacity:1;stroke:none;font-family:Times New Roman;-inkscape-font-specification:Times New Roman"
       x="321.07144"
       y="1033.0765"
       id="text5854"
       sodipodi:linespacing="125%"><tspan
         sodipodi:role="line"
         id="tspan5856"
         x="321.07144"
         y="1033.0765"
         style="font-size:12px">λ<tspan
   style="font-size:65.00091553%;baseline-shift:sub"
   id="tspan5858">r</tspan></tspan></text>
    <path
       style="fill:none;stroke:#000000;stroke-width:1px;stroke-linecap:butt;stroke-linejoin:miter;stroke-opacity:1;marker-start:url(#Arrow1Mstart);marker-end:url(#Arrow1Mend)"
       d="m 346,982.36218 0,40.00002"
       id="path5860"
       inkscape:connector-curvature="0" />
    <text
       xml:space="preserve"
       style="font-size:40px;font-style:normal;font-variant:normal;font-weight:normal;font-stretch:normal;line-height:125%;letter-spacing:0px;word-spacing:0px;fill:#000000;fill-opacity:1;stroke:none;font-family:Times New Roman;-inkscape-font-specification:Times New Roman"
       x="348.42856"
       y="1007.7907"
       id="text5854-6"
       sodipodi:linespacing="125%"><tspan
         sodipodi:role="line"
         id="tspan5856-5"
         x="348.42856"
         y="1007.7907"
         style="font-size:12px">D</tspan></text>
    <text
       xml:space="preserve"
       style="font-size:40px;font-style:normal;font-variant:normal;font-weight:normal;font-stretch:normal;line-height:125%;letter-spacing:0px;word-spacing:0px;fill:#000000;fill-opacity:1;stroke:none;font-family:Times New Roman;-inkscape-font-specification:Times New Roman"
       x="392.17859"
       y="997.79077"
       id="text5854-6-9"
       sodipodi:linespacing="125%"><tspan
         sodipodi:role="line"
         id="tspan5856-5-4"
         x="392.17859"
         y="997.79077"
         style="font-size:12px">D<tspan
   style="font-size:65.00091553%;baseline-shift:sub"
   id="tspan6277">s</tspan></tspan></text>
    <path
       style="fill:none;stroke:#000000;stroke-width:1px;stroke-linecap:butt;stroke-linejoin:miter;stroke-opacity:1;marker-start:url(#Arrow1Mstart);marker-end:url(#Arrow1Mend)"
       d="m 385,982.36216 10,40.00004"
       id="path5860-5"
       inkscape:connector-curvature="0"
       sodipodi:nodetypes="cc" />
    <path
       style="fill:none;stroke:#000000;stroke-width:0.99999994px;stroke-linecap:butt;stroke-linejoin:miter;stroke-opacity:1;marker-end:url(#Arrow1Mend-7)"
       d="m 64.717256,1019.5121 c 22.595603,0 22.595603,0 22.595603,0"
       id="path6309"
       inkscape:connector-curvature="0" />
    <path
       style="fill:none;stroke:#000000;stroke-width:1px;stroke-linecap:butt;stroke-linejoin:miter;stroke-opacity:1;marker-end:url(#Arrow1Mend-7)"
       d="m 65.00303,1020.0158 c 1e-5,-22.05316 1e-5,-22.05316 1e-5,-22.05316"
       id="path6309-3"
       inkscape:connector-curvature="0" />
    <text
       xml:space="preserve"
       style="font-size:40px;font-style:normal;font-variant:normal;font-weight:normal;font-stretch:normal;line-height:125%;letter-spacing:0px;word-spacing:0px;fill:#000000;fill-opacity:1;stroke:none;font-family:Times New Roman;-inkscape-font-specification:Times New Roman"
       x="81.428566"
       y="1027.5408"
       id="text6593"
       sodipodi:linespacing="125%"><tspan
         sodipodi:role="line"
         id="tspan6595"
         x="81.428566"
         y="1027.5408"
         style="font-size:12px">x</tspan></text>
    <text
       xml:space="preserve"
       style="font-size:40px;font-style:normal;font-variant:normal;font-weight:normal;font-stretch:normal;line-height:125%;letter-spacing:0px;word-spacing:0px;fill:#000000;fill-opacity:1;stroke:none;font-family:Times New Roman;-inkscape-font-specification:Times New Roman"
       x="56.10128"
       y="1002.7243"
       id="text6593-4"
       sodipodi:linespacing="125%"><tspan
         sodipodi:role="line"
         id="tspan6595-8"
         x="56.10128"
         y="1002.7243"
         style="font-size:12px">z</tspan></text>
  </g>
</svg>
